<?xml version="1.0" encoding="utf-8"?>
<!-- Generator: Adobe Illustrator 22.0.1, SVG Export Plug-In . SVG Version: 6.00 Build 0)  -->
<svg version="1.1" id="Layer_1" xmlns="http://www.w3.org/2000/svg" xmlns:xlink="http://www.w3.org/1999/xlink" x="0px" y="0px"
	 viewBox="0 0 65.3 95.4" style="enable-background:new 0 0 65.3 95.4;" xml:space="preserve">
<style type="text/css">
	.st0{fill:#A8D2EF;stroke:#295182;stroke-width:4.5;stroke-linecap:round;stroke-linejoin:round;stroke-miterlimit:10;}
	.st1{fill:#E8E9EA;stroke:#295182;stroke-width:4.5;stroke-linecap:round;stroke-linejoin:round;stroke-miterlimit:10;}
	.st2{fill:none;stroke:#295182;stroke-width:4.5;stroke-linejoin:round;stroke-miterlimit:10;}
	.st3{fill:none;stroke:#FFFFFF;stroke-width:4;stroke-linecap:round;stroke-miterlimit:10;}
</style>
<g>
	<g>
		<path class="st0" d="M63.1,17.4c0-0.4,0-0.8,0-1.2c-0.2-5.4-2.3-8.5-5.6-10.8C54.2,3.3,49.6,2.2,45,2.3c-4.2,0-8.4,0.9-11.2,2.2
			l-1.1,0.5L40.4,9l-7.7-4.1l-1.1-0.5c-2.3-1-5.4-1.8-8.8-2.1L17,2.4c-3.4,0.4-6.7,1.4-9.1,3.1c-3.2,2.2-5.4,5.4-5.6,10.8
			c0,0.4,0,0.8,0,1.2C2.9,25,3.7,27.6,5.4,31.7c0.5,1.2,1.3,2.4,2,3.8h11c0,0,3,0.1,3.9-2.8V29c0,0-0.3-3.3,3.3-3.3h14.1
			c3.6,0,3.3,3.3,3.3,3.3v3.8c0.8,2.9,3.9,2.8,3.9,2.8h10.3c0,0,1.6,0,3.1-3.7C62.5,26.2,62.6,24.3,63.1,17.4z"/>
		<path class="st1" d="M39.7,43.3C48,43,59,45.7,53.9,63.6c-1.3,3.1-2.1,5.4-2.4,11.4c-0.3,6-1.6,11.6-3.3,14.7
			c-1.7,3.1-2.5,3.6-4.2,3.6c-0.1,0-2-1.3-2.9-5.9c-0.4-2-0.7-7-1.6-11c-0.4-2-1.3-4.3-2.6-6.6c-3.1-5.3-8-3-9.9,0
			c-1.4,2.2-2,4.6-2.6,6.6c-1.9,7-1.3,9.4-1.7,13.6c-0.1,1.1-0.8,3.3-2.8,3.3c-1.9,0-2.5-0.5-4.2-3.6c-1.7-3.1-3.5-8.1-3.3-14.7
			c0.1-6,0.3-8.2-1.1-11.3c0,0-8.4-25.1,16.4-20.3l3.7,1.2c0,0,0.4-0.1,1-0.2"/>
		<polyline class="st2" points="39.2,50.9 32.7,57.4 26.1,50.9 		"/>
		<line class="st2" x1="32.7" y1="57.4" x2="32.7" y2="35.1"/>
	</g>
	<path class="st3" d="M48.6,9.7c0,0,8.2,3.4,6.2,12.7"/>
</g>
</svg>
