<?xml version="1.0" encoding="UTF-8" ?>
<!DOCTYPE svg PUBLIC "-//W3C//DTD SVG 1.1//EN" "http://www.w3.org/Graphics/SVG/1.1/DTD/svg11.dtd">
<svg width="38pt" height="37pt" viewBox="0 0 38 37" version="1.1" xmlns="http://www.w3.org/2000/svg">
<g id="#255283ff">
<path fill="#255283" opacity="1.00" d=" M 15.79 0.00 L 22.16 0.00 C 28.52 0.46 37.30 2.75 38.00 10.37 L 38.00 14.85 C 37.46 15.66 36.92 16.47 36.37 17.27 C 35.87 18.49 35.58 19.82 34.87 20.95 C 33.27 21.32 31.65 21.53 30.03 21.76 C 27.92 23.37 25.35 23.75 22.77 23.86 C 25.60 25.38 28.77 26.53 31.07 28.82 C 32.12 31.04 32.45 33.50 33.04 35.87 C 32.61 35.97 31.74 36.18 31.30 36.28 C 30.63 34.11 30.26 31.79 29.13 29.80 C 26.97 27.96 24.28 26.88 21.80 25.54 C 25.45 28.43 28.83 31.85 29.39 36.72 L 28.03 37.00 L 27.54 37.00 C 26.73 33.31 24.76 30.09 21.45 28.16 C 22.89 30.05 24.51 31.80 26.08 33.58 C 25.80 34.73 25.46 35.87 25.06 36.99 C 23.61 34.31 22.23 31.22 19.46 29.66 C 17.03 29.17 14.51 29.41 12.09 28.93 C 10.37 27.86 10.75 25.48 10.28 23.78 C 9.63 23.08 9.02 22.34 8.44 21.59 C 6.68 21.46 4.91 21.38 3.17 21.03 C 2.45 19.86 2.13 18.51 1.63 17.25 C 1.09 16.46 0.54 15.67 0.00 14.88 L 0.00 10.44 C 0.71 2.85 9.47 0.57 15.79 0.00 M 4.11 6.11 C 1.85 7.77 2.05 10.75 1.75 13.21 C 2.51 12.01 3.26 10.81 4.00 9.60 C 6.24 9.83 8.23 10.82 9.52 12.70 C 12.16 9.92 16.29 10.06 18.92 12.78 C 21.62 10.10 25.76 9.88 28.44 12.71 C 29.73 11.47 30.90 9.52 32.99 9.82 C 35.21 9.91 35.25 12.69 36.12 14.19 C 35.98 12.26 36.02 10.30 35.63 8.40 C 33.22 3.91 27.71 2.57 23.02 2.09 C 16.61 1.74 9.30 1.76 4.11 6.11 M 3.93 19.39 C 5.38 19.44 6.82 19.48 8.27 19.52 C 8.32 16.50 7.93 13.44 5.82 11.11 C 3.34 13.18 4.13 16.57 3.93 19.39 M 29.69 19.52 C 31.15 19.48 32.61 19.43 34.07 19.38 C 33.97 16.76 34.27 13.99 33.10 11.55 C 29.43 12.31 29.89 16.69 29.69 19.52 M 12.23 13.07 C 9.98 15.33 10.78 18.96 10.07 21.82 C 11.11 18.04 13.72 15.09 17.69 14.34 C 16.10 13.26 14.15 11.59 12.23 13.07 M 20.06 15.56 C 21.40 17.45 22.43 19.52 23.26 21.68 C 24.68 21.66 26.11 21.65 27.53 21.65 C 27.14 18.83 28.11 15.22 25.71 13.09 C 23.42 11.45 20.91 13.32 20.06 15.56 M 14.18 18.06 C 11.91 20.51 12.72 24.21 12.45 27.26 C 15.18 27.35 17.90 27.37 20.63 27.37 C 19.30 26.16 18.07 24.84 16.73 23.65 C 17.59 21.59 19.50 22.00 21.25 22.51 C 20.74 21.06 20.34 19.57 19.83 18.12 C 18.04 17.44 15.77 16.35 14.18 18.06 Z" />
</g>
<g id="#a8d3f1ff">
<path fill="#a8d3f1" opacity="1.00" d=" M 4.11 6.11 C 9.30 1.76 16.61 1.74 23.02 2.09 C 27.71 2.57 33.22 3.91 35.63 8.40 C 36.02 10.30 35.98 12.26 36.12 14.19 C 35.25 12.69 35.21 9.91 32.99 9.82 C 30.90 9.52 29.73 11.47 28.44 12.71 C 25.76 9.88 21.62 10.10 18.92 12.78 C 16.29 10.06 12.16 9.92 9.52 12.70 C 8.23 10.82 6.24 9.83 4.00 9.60 C 3.26 10.81 2.51 12.01 1.75 13.21 C 2.05 10.75 1.85 7.77 4.11 6.11 M 6.30 7.48 C 10.64 6.46 15.03 5.63 19.51 5.71 C 19.15 4.35 18.30 3.71 16.95 3.77 C 13.16 3.56 8.48 3.83 6.30 7.48 Z" />
<path fill="#a8d3f1" opacity="1.00" d=" M 21.80 25.54 C 24.28 26.88 26.97 27.96 29.13 29.80 C 30.26 31.79 30.63 34.11 31.30 36.28 C 30.82 36.39 29.87 36.61 29.39 36.72 C 28.83 31.85 25.45 28.43 21.80 25.54 Z" />
</g>
<g id="#f4f9fdff">
<path fill="#f4f9fd" opacity="1.00" d=" M 6.30 7.48 C 8.48 3.83 13.16 3.56 16.95 3.77 C 18.30 3.71 19.15 4.35 19.51 5.71 C 15.03 5.63 10.64 6.46 6.30 7.48 Z" />
</g>
<g id="#eaeceeff">
<path fill="#eaecee" opacity="1.00" d=" M 3.93 19.39 C 4.13 16.57 3.34 13.18 5.82 11.11 C 7.93 13.44 8.32 16.50 8.27 19.52 C 6.82 19.48 5.38 19.44 3.93 19.39 Z" />
<path fill="#eaecee" opacity="1.00" d=" M 29.69 19.52 C 29.89 16.69 29.43 12.31 33.10 11.55 C 34.27 13.99 33.97 16.76 34.07 19.38 C 32.61 19.43 31.15 19.48 29.69 19.52 Z" />
<path fill="#eaecee" opacity="1.00" d=" M 12.23 13.07 C 14.15 11.59 16.10 13.26 17.69 14.34 C 13.72 15.09 11.11 18.04 10.07 21.82 C 10.78 18.96 9.98 15.33 12.23 13.07 Z" />
<path fill="#eaecee" opacity="1.00" d=" M 20.06 15.56 C 20.91 13.32 23.42 11.45 25.71 13.09 C 28.11 15.22 27.14 18.83 27.53 21.65 C 26.11 21.65 24.68 21.66 23.26 21.68 C 22.43 19.52 21.40 17.45 20.06 15.56 Z" />
<path fill="#eaecee" opacity="1.00" d=" M 14.18 18.06 C 15.77 16.35 18.04 17.44 19.83 18.12 C 20.34 19.57 20.74 21.06 21.25 22.51 C 19.50 22.00 17.59 21.59 16.73 23.65 C 18.07 24.84 19.30 26.16 20.63 27.37 C 17.90 27.37 15.18 27.35 12.45 27.26 C 12.72 24.21 11.91 20.51 14.18 18.06 Z" />
</g>
</svg>
