<?xml version="1.0" encoding="UTF-8" ?>
<!DOCTYPE svg PUBLIC "-//W3C//DTD SVG 1.1//EN" "http://www.w3.org/Graphics/SVG/1.1/DTD/svg11.dtd">
<svg width="37pt" height="33pt" viewBox="0 0 37 33" version="1.1" xmlns="http://www.w3.org/2000/svg">
<g id="#255282fd">
<path fill="#255282" opacity="1.00" d=" M 10.41 0.00 L 27.33 0.00 C 30.88 0.29 35.29 0.39 37.00 4.14 L 37.00 12.56 C 36.16 13.41 35.48 14.72 34.10 14.69 C 25.74 15.28 17.35 14.76 8.98 14.97 C 5.93 14.72 2.00 15.71 0.00 12.71 L 0.00 3.67 C 2.27 0.18 6.74 0.35 10.41 0.00 M 2.50 3.23 C 3.47 4.09 4.45 4.94 5.42 5.79 C 6.29 5.08 7.08 4.26 8.07 3.72 C 9.33 4.03 10.34 4.89 11.43 5.55 C 12.78 2.08 17.56 2.68 18.25 6.25 C 18.32 6.17 18.47 6.01 18.54 5.93 C 19.63 4.90 20.48 3.30 22.12 3.09 C 23.69 2.94 24.65 4.31 25.65 5.26 C 27.66 3.71 29.87 3.37 31.58 5.60 C 32.54 4.82 33.49 4.04 34.44 3.25 C 23.94 1.26 13.02 1.42 2.50 3.23 M 11.79 12.91 C 13.62 12.96 15.44 13.01 17.27 13.04 C 17.08 10.31 16.82 7.51 15.55 5.04 C 15.15 5.00 14.34 4.92 13.94 4.88 C 12.89 7.45 12.34 10.19 11.79 12.91 M 21.43 4.66 C 20.58 7.39 19.93 10.17 19.72 13.02 C 21.54 13.01 23.37 12.99 25.19 12.96 C 24.29 10.20 25.06 5.38 21.43 4.66 M 1.94 5.81 C 2.24 8.48 0.91 12.43 4.49 13.27 C 4.77 11.50 5.01 9.72 5.27 7.95 C 4.16 7.24 3.05 6.52 1.94 5.81 M 8.20 5.35 C 7.49 7.69 6.91 10.07 6.47 12.48 C 7.60 12.64 8.73 12.81 9.86 13.00 C 10.16 11.32 10.47 9.64 10.80 7.96 C 9.93 7.09 9.06 6.22 8.20 5.35 M 26.49 7.66 C 26.76 9.48 26.99 11.30 27.22 13.12 C 28.33 12.87 29.44 12.63 30.56 12.41 C 30.09 10.00 29.47 7.64 28.70 5.31 C 27.96 6.09 27.22 6.87 26.49 7.66 M 31.77 8.03 C 32.00 9.77 32.23 11.52 32.48 13.26 C 36.11 12.48 34.75 8.48 35.07 5.81 C 33.97 6.55 32.87 7.29 31.77 8.03 Z" />
<path fill="#255282" opacity="1.00" d=" M 0.00 20.45 C 0.84 19.59 1.55 18.27 2.94 18.30 C 11.28 17.72 19.66 18.24 28.01 18.03 C 31.06 18.29 34.94 17.30 37.00 20.24 L 37.00 28.82 C 35.19 32.87 30.35 32.72 26.59 33.00 L 10.43 33.00 C 6.75 32.66 2.32 32.80 0.00 29.37 L 0.00 20.45 M 6.43 20.61 C 6.92 22.98 7.51 25.34 8.22 27.65 C 9.08 26.78 9.95 25.91 10.82 25.04 C 10.46 23.33 10.11 21.61 9.77 19.90 C 8.66 20.16 7.55 20.39 6.43 20.61 M 11.79 20.09 C 12.34 22.80 12.89 25.54 13.93 28.12 C 14.33 28.08 15.14 28.00 15.55 27.96 C 16.82 25.48 17.07 22.68 17.27 19.96 C 15.44 19.99 13.62 20.04 11.79 20.09 M 19.73 19.97 C 20.40 22.59 19.60 27.80 23.07 28.17 C 24.23 25.61 24.77 22.82 25.20 20.05 C 23.38 20.02 21.55 19.99 19.73 19.97 M 27.22 19.90 C 26.99 21.72 26.76 23.53 26.49 25.35 C 27.22 26.13 27.95 26.90 28.69 27.68 C 29.49 25.35 30.11 22.97 30.53 20.55 C 29.42 20.35 28.32 20.13 27.22 19.90 M 1.94 27.20 C 3.06 26.48 4.17 25.76 5.28 25.04 C 5.01 23.25 4.74 21.47 4.44 19.69 C 0.94 20.64 2.23 24.53 1.94 27.20 M 31.76 24.97 C 32.86 25.71 33.97 26.45 35.07 27.19 C 34.76 24.52 36.08 20.60 32.53 19.71 C 32.25 21.46 32.01 23.22 31.76 24.97 M 18.54 27.06 C 17.43 28.11 16.59 29.83 14.86 29.89 C 13.23 30.06 12.35 28.57 11.41 27.52 C 10.36 28.28 9.24 28.87 8.04 29.29 C 7.16 28.67 6.33 27.99 5.53 27.26 C 4.51 28.08 3.48 28.89 2.47 29.74 C 12.99 31.61 23.93 31.73 34.44 29.74 C 33.49 28.96 32.53 28.18 31.57 27.41 C 29.86 29.61 27.63 29.32 25.65 27.73 C 23.97 30.93 19.58 30.18 18.82 26.75 C 18.75 26.83 18.61 26.98 18.54 27.06 Z" />
</g>
<g id="#eaeceeff">
<path fill="#eaecee" opacity="1.00" d=" M 2.50 3.23 C 13.02 1.42 23.94 1.26 34.44 3.25 C 33.49 4.04 32.54 4.82 31.58 5.60 C 29.87 3.37 27.66 3.71 25.65 5.26 C 24.65 4.31 23.69 2.94 22.12 3.09 C 20.48 3.30 19.63 4.90 18.54 5.93 L 18.25 6.25 C 17.56 2.68 12.78 2.08 11.43 5.55 C 10.34 4.89 9.33 4.03 8.07 3.72 C 7.08 4.26 6.29 5.08 5.42 5.79 C 4.45 4.94 3.47 4.09 2.50 3.23 Z" />
<path fill="#eaecee" opacity="1.00" d=" M 11.79 12.91 C 12.34 10.19 12.89 7.45 13.94 4.88 C 14.34 4.92 15.15 5.00 15.55 5.04 C 16.82 7.51 17.08 10.31 17.27 13.04 C 15.44 13.01 13.62 12.96 11.79 12.91 Z" />
<path fill="#eaecee" opacity="1.00" d=" M 21.43 4.66 C 25.06 5.38 24.29 10.20 25.19 12.96 C 23.37 12.99 21.54 13.01 19.72 13.02 C 19.93 10.17 20.58 7.39 21.43 4.66 Z" />
<path fill="#eaecee" opacity="1.00" d=" M 1.94 5.81 C 3.05 6.52 4.16 7.24 5.27 7.95 C 5.01 9.72 4.77 11.50 4.49 13.27 C 0.91 12.43 2.24 8.48 1.94 5.81 Z" />
<path fill="#eaecee" opacity="1.00" d=" M 8.20 5.35 C 9.06 6.22 9.93 7.09 10.80 7.96 C 10.47 9.64 10.16 11.32 9.86 13.00 C 8.73 12.81 7.60 12.64 6.47 12.48 C 6.91 10.07 7.49 7.69 8.20 5.35 Z" />
<path fill="#eaecee" opacity="1.00" d=" M 26.49 7.66 C 27.22 6.87 27.96 6.09 28.70 5.31 C 29.47 7.64 30.09 10.00 30.56 12.41 C 29.44 12.63 28.33 12.87 27.22 13.12 C 26.99 11.30 26.76 9.48 26.49 7.66 Z" />
<path fill="#eaecee" opacity="1.00" d=" M 31.77 8.03 C 32.87 7.29 33.97 6.55 35.07 5.81 C 34.75 8.48 36.11 12.48 32.48 13.26 C 32.23 11.52 32.00 9.77 31.77 8.03 Z" />
<path fill="#eaecee" opacity="1.00" d=" M 6.43 20.61 C 7.55 20.39 8.66 20.16 9.77 19.90 C 10.11 21.61 10.46 23.33 10.82 25.04 C 9.95 25.91 9.08 26.78 8.22 27.65 C 7.51 25.34 6.92 22.98 6.43 20.61 Z" />
<path fill="#eaecee" opacity="1.00" d=" M 11.79 20.09 C 13.62 20.04 15.44 19.99 17.27 19.96 C 17.07 22.68 16.82 25.48 15.55 27.96 C 15.14 28.00 14.33 28.08 13.93 28.12 C 12.89 25.54 12.34 22.80 11.79 20.09 Z" />
<path fill="#eaecee" opacity="1.00" d=" M 19.73 19.97 C 21.55 19.99 23.38 20.02 25.20 20.05 C 24.77 22.82 24.23 25.61 23.07 28.17 C 19.60 27.80 20.40 22.59 19.73 19.97 Z" />
<path fill="#eaecee" opacity="1.00" d=" M 27.22 19.90 C 28.32 20.13 29.42 20.35 30.53 20.55 C 30.11 22.97 29.49 25.35 28.69 27.68 C 27.95 26.90 27.22 26.13 26.49 25.35 C 26.76 23.53 26.99 21.72 27.22 19.90 Z" />
<path fill="#eaecee" opacity="1.00" d=" M 1.94 27.20 C 2.23 24.53 0.94 20.64 4.44 19.69 C 4.74 21.47 5.01 23.25 5.28 25.04 C 4.17 25.76 3.06 26.48 1.94 27.20 Z" />
<path fill="#eaecee" opacity="1.00" d=" M 31.76 24.97 C 32.01 23.22 32.25 21.46 32.53 19.71 C 36.08 20.60 34.76 24.52 35.07 27.19 C 33.97 26.45 32.86 25.71 31.76 24.97 Z" />
<path fill="#eaecee" opacity="1.00" d=" M 2.47 29.74 C 3.48 28.89 4.51 28.08 5.53 27.26 C 6.33 27.99 7.16 28.67 8.04 29.29 C 9.24 28.87 10.36 28.28 11.41 27.52 C 12.35 28.57 13.23 30.06 14.86 29.89 C 16.59 29.83 17.43 28.11 18.54 27.06 L 18.82 26.75 C 19.58 30.18 23.97 30.93 25.65 27.73 C 27.63 29.32 29.86 29.61 31.57 27.41 C 32.53 28.18 33.49 28.96 34.44 29.74 C 23.93 31.73 12.99 31.61 2.47 29.74 Z" />
</g>
</svg>
