<?xml version="1.0" encoding="UTF-8" ?>
<!DOCTYPE svg PUBLIC "-//W3C//DTD SVG 1.1//EN" "http://www.w3.org/Graphics/SVG/1.1/DTD/svg11.dtd">
<svg width="25pt" height="38pt" viewBox="0 0 25 38" version="1.1" xmlns="http://www.w3.org/2000/svg">
<g id="#245182fe">
<path fill="#245182" opacity="1.00" d=" M 6.57 0.00 L 9.90 0.00 C 11.13 1.90 13.79 1.93 15.00 0.00 L 18.01 0.00 C 20.20 5.41 12.99 8.90 8.92 6.02 C 6.63 4.89 6.72 2.17 6.57 0.00 M 7.95 2.09 C 9.71 6.01 15.32 6.03 17.06 2.09 C 14.02 2.19 10.99 2.20 7.95 2.09 Z" />
<path fill="#245182" opacity="1.00" d=" M 0.00 13.69 C 1.02 9.82 5.23 8.10 8.92 8.83 C 13.13 9.76 17.58 7.68 21.61 9.53 C 23.32 10.21 24.16 11.94 25.00 13.45 L 25.00 17.34 C 23.84 20.88 21.83 24.21 21.78 28.04 C 21.60 31.53 21.29 35.22 18.93 38.00 L 16.29 38.00 C 15.02 33.78 15.94 28.89 13.08 25.22 C 11.71 25.59 10.84 26.45 10.47 27.80 C 9.54 31.12 9.60 34.64 8.79 38.00 L 6.17 38.00 C 3.36 35.02 3.47 30.80 3.11 27.00 C 2.89 23.60 1.06 20.63 0.00 17.46 L 0.00 13.69 M 1.96 13.98 C 0.87 18.34 4.68 21.74 4.90 25.92 C 5.25 29.57 4.93 33.60 7.41 36.62 C 7.93 32.88 7.56 28.80 9.53 25.43 C 10.56 23.40 13.83 22.78 15.11 24.90 C 17.47 28.32 17.16 32.67 17.58 36.61 C 20.07 33.60 19.75 29.57 20.10 25.92 C 20.32 21.73 24.14 18.33 23.04 13.97 C 22.75 11.86 20.47 11.27 18.90 10.37 C 17.54 12.46 15.71 14.64 12.95 14.57 C 9.93 14.96 7.56 12.81 6.14 10.40 C 4.54 11.26 2.24 11.84 1.96 13.98 M 8.10 10.70 C 10.56 13.24 14.50 13.28 16.91 10.65 C 14.00 11.36 11.03 11.31 8.10 10.70 Z" />
</g>
<g id="#19385ab0">
<path fill="#19385a" opacity="0.69" d=" M 9.90 0.00 L 15.00 0.00 C 13.79 1.93 11.13 1.90 9.90 0.00 Z" />
</g>
<g id="#a8d3f1ff">
<path fill="#a8d3f1" opacity="1.00" d=" M 7.95 2.09 C 10.99 2.20 14.02 2.19 17.06 2.09 C 15.32 6.03 9.71 6.01 7.95 2.09 Z" />
</g>
<g id="#eaeceeff">
<path fill="#eaecee" opacity="1.00" d=" M 1.96 13.98 C 2.24 11.84 4.54 11.26 6.14 10.40 C 7.56 12.81 9.93 14.96 12.95 14.57 C 15.71 14.64 17.54 12.46 18.90 10.37 C 20.47 11.27 22.75 11.86 23.04 13.97 C 24.14 18.33 20.32 21.73 20.10 25.92 C 19.75 29.57 20.07 33.60 17.58 36.61 C 17.16 32.67 17.47 28.32 15.11 24.90 C 13.83 22.78 10.56 23.40 9.53 25.43 C 7.56 28.80 7.93 32.88 7.41 36.62 C 4.93 33.60 5.25 29.57 4.90 25.92 C 4.68 21.74 0.87 18.34 1.96 13.98 Z" />
<path fill="#eaecee" opacity="1.00" d=" M 8.10 10.70 C 11.03 11.31 14.00 11.36 16.91 10.65 C 14.50 13.28 10.56 13.24 8.10 10.70 Z" />
</g>
</svg>
