<?xml version="1.0" encoding="UTF-8" ?>
<!DOCTYPE svg PUBLIC "-//W3C//DTD SVG 1.1//EN" "http://www.w3.org/Graphics/SVG/1.1/DTD/svg11.dtd">
<svg width="36pt" height="33pt" viewBox="0 0 36 33" version="1.1" xmlns="http://www.w3.org/2000/svg">
<g id="#255283ff">
<path fill="#255283" opacity="1.00" d=" M 0.00 0.00 L 0.08 0.00 C 0.46 0.08 1.21 0.25 1.59 0.34 C 1.62 2.92 1.52 5.53 2.01 8.08 C 3.41 9.17 5.27 8.40 6.86 8.37 C 13.17 7.35 19.62 6.97 25.96 7.97 C 28.52 8.16 31.22 9.17 33.72 8.17 C 34.13 5.67 34.16 3.12 34.41 0.60 L 35.86 0.03 C 35.66 2.93 36.30 6.06 35.17 8.80 C 33.23 11.61 29.49 9.84 26.76 9.77 C 25.90 11.49 25.00 13.18 24.03 14.83 C 22.50 13.21 21.45 11.24 20.91 9.07 C 19.08 9.05 17.25 9.04 15.42 9.04 C 14.67 11.00 13.83 12.92 12.88 14.80 C 11.29 13.40 10.13 11.64 9.34 9.69 C 6.14 10.11 2.26 11.44 0.00 8.25 L 0.00 0.00 M 11.68 9.22 C 10.52 10.18 11.61 13.19 13.15 11.84 C 14.32 10.88 13.23 7.86 11.68 9.22 M 23.09 9.27 C 21.78 10.24 23.08 13.01 24.62 11.80 C 25.96 10.84 24.61 8.07 23.09 9.27 Z" />
</g>
<g id="#a8d3f1ff">
<path fill="#a8d3f1" opacity="1.00" d=" M 1.59 0.34 C 6.34 1.17 11.18 0.61 15.97 0.75 C 22.12 0.61 28.27 1.10 34.41 0.60 C 34.16 3.12 34.13 5.67 33.72 8.17 C 31.22 9.17 28.52 8.16 25.96 7.97 C 19.62 6.97 13.17 7.35 6.86 8.37 C 5.27 8.40 3.41 9.17 2.01 8.08 C 1.52 5.53 1.62 2.92 1.59 0.34 Z" />
<path fill="#a8d3f1" opacity="1.00" d=" M 11.68 9.22 C 13.23 7.86 14.32 10.88 13.15 11.84 C 11.61 13.19 10.52 10.18 11.68 9.22 Z" />
</g>
<g id="#739ec4ff">
<path fill="#739ec4" opacity="1.00" d=" M 23.09 9.27 C 24.61 8.07 25.96 10.84 24.62 11.80 C 23.08 13.01 21.78 10.24 23.09 9.27 Z" />
</g>
<g id="#245181fd">
<path fill="#245181" opacity="1.00" d=" M 9.08 18.67 C 9.24 17.78 9.39 16.88 9.55 15.99 C 11.41 16.00 13.28 16.00 15.15 16.01 C 15.30 16.58 15.60 17.72 15.75 18.29 C 17.15 18.23 18.55 18.17 19.94 18.10 C 21.26 15.48 24.23 16.07 26.64 15.83 C 26.78 16.56 27.05 18.01 27.19 18.74 C 30.49 18.86 34.32 19.03 36.00 22.41 L 36.00 31.31 C 34.75 31.06 34.15 31.62 34.18 33.00 L 1.62 33.00 C 1.92 31.60 1.39 31.03 0.00 31.29 L 0.00 21.97 C 2.05 18.95 5.82 18.94 9.08 18.67 M 11.49 18.04 C 11.55 21.37 14.53 16.58 11.49 18.04 M 23.31 18.06 C 23.46 21.38 26.31 16.52 23.31 18.06 M 2.08 21.96 C 3.17 22.62 4.26 23.28 5.35 23.93 C 6.87 21.84 8.92 21.83 10.92 23.26 C 11.96 22.57 12.96 21.80 14.10 21.26 C 15.86 21.31 16.90 22.85 17.98 24.02 C 19.19 22.89 20.46 21.84 21.81 20.88 C 22.87 21.65 23.93 22.42 24.98 23.20 C 26.99 21.88 29.23 21.75 30.68 23.97 C 31.74 23.30 32.81 22.62 33.87 21.94 C 23.54 19.52 12.41 19.62 2.08 21.96 M 13.17 23.95 C 12.59 26.33 12.00 28.72 11.54 31.13 C 13.45 31.13 15.35 31.12 17.26 31.10 C 16.80 28.38 16.03 25.72 15.03 23.14 C 14.57 23.34 13.64 23.75 13.17 23.95 M 7.88 23.80 C 7.18 26.14 6.67 28.52 6.31 30.93 C 7.16 30.97 8.85 31.04 9.70 31.08 C 9.95 29.40 10.21 27.72 10.47 26.05 C 9.61 25.30 8.74 24.55 7.88 23.80 M 18.75 31.09 C 20.68 31.12 22.60 31.13 24.53 31.13 C 24.15 28.15 23.36 25.21 21.86 22.58 C 20.01 25.07 19.34 28.11 18.75 31.09 M 26.48 31.10 C 27.27 31.05 28.86 30.97 29.65 30.92 C 29.33 28.40 28.79 25.92 27.96 23.51 C 25.27 25.34 25.99 28.36 26.48 31.10 M 1.90 24.21 C 1.94 26.40 2.01 28.58 2.09 30.77 C 2.74 30.85 4.04 31.01 4.69 31.09 C 4.80 29.45 4.92 27.82 5.06 26.19 C 4.01 25.52 2.96 24.86 1.90 24.21 M 30.97 26.22 C 31.10 27.83 31.21 29.45 31.31 31.06 C 31.95 31.01 33.23 30.89 33.87 30.84 C 33.98 28.63 34.07 26.43 34.13 24.23 C 33.07 24.89 32.02 25.55 30.97 26.22 Z" />
</g>
<g id="#95aac0ff">
<path fill="#95aac0" opacity="1.00" d=" M 11.49 18.04 C 14.53 16.58 11.55 21.37 11.49 18.04 Z" />
</g>
<g id="#9db1c5ff">
<path fill="#9db1c5" opacity="1.00" d=" M 23.31 18.06 C 26.31 16.52 23.46 21.38 23.31 18.06 Z" />
</g>
<g id="#eaeceeff">
<path fill="#eaecee" opacity="1.00" d=" M 2.08 21.96 C 12.41 19.62 23.54 19.52 33.87 21.94 C 32.81 22.62 31.74 23.30 30.68 23.97 C 29.23 21.75 26.99 21.88 24.98 23.20 C 23.93 22.42 22.87 21.65 21.81 20.88 C 20.46 21.84 19.19 22.89 17.98 24.02 C 16.90 22.85 15.86 21.31 14.10 21.26 C 12.96 21.80 11.96 22.57 10.92 23.26 C 8.92 21.83 6.87 21.84 5.35 23.93 C 4.26 23.28 3.17 22.62 2.08 21.96 Z" />
<path fill="#eaecee" opacity="1.00" d=" M 13.17 23.95 C 13.64 23.75 14.57 23.34 15.03 23.14 C 16.03 25.72 16.80 28.38 17.26 31.10 C 15.35 31.12 13.45 31.13 11.54 31.13 C 12.00 28.72 12.59 26.33 13.17 23.95 Z" />
<path fill="#eaecee" opacity="1.00" d=" M 7.88 23.80 C 8.74 24.55 9.61 25.30 10.47 26.05 C 10.21 27.72 9.95 29.40 9.70 31.08 C 8.85 31.04 7.16 30.97 6.31 30.93 C 6.67 28.52 7.18 26.14 7.88 23.80 Z" />
<path fill="#eaecee" opacity="1.00" d=" M 18.75 31.09 C 19.34 28.11 20.01 25.07 21.86 22.58 C 23.36 25.21 24.15 28.15 24.53 31.13 C 22.60 31.13 20.68 31.12 18.75 31.09 Z" />
<path fill="#eaecee" opacity="1.00" d=" M 26.48 31.10 C 25.99 28.36 25.27 25.34 27.96 23.51 C 28.79 25.92 29.33 28.40 29.65 30.92 C 28.86 30.97 27.27 31.05 26.48 31.10 Z" />
<path fill="#eaecee" opacity="1.00" d=" M 1.90 24.21 C 2.96 24.86 4.01 25.52 5.06 26.19 C 4.92 27.82 4.80 29.45 4.69 31.09 C 4.04 31.01 2.74 30.85 2.09 30.77 C 2.01 28.58 1.94 26.40 1.90 24.21 Z" />
<path fill="#eaecee" opacity="1.00" d=" M 30.97 26.22 C 32.02 25.55 33.07 24.89 34.13 24.23 C 34.07 26.43 33.98 28.63 33.87 30.84 C 33.23 30.89 31.95 31.01 31.31 31.06 C 31.21 29.45 31.10 27.83 30.97 26.22 Z" />
</g>
</svg>
