<?xml version="1.0" encoding="UTF-8" ?>
<!DOCTYPE svg PUBLIC "-//W3C//DTD SVG 1.1//EN" "http://www.w3.org/Graphics/SVG/1.1/DTD/svg11.dtd">
<svg width="26pt" height="38pt" viewBox="0 0 26 38" version="1.1" xmlns="http://www.w3.org/2000/svg">
<g id="#255283ff">
<path fill="#255283" opacity="1.00" d=" M 6.38 0.00 L 9.61 0.00 C 10.63 0.75 11.75 1.26 12.97 1.53 C 14.16 1.25 15.26 0.74 16.25 0.00 L 19.48 0.00 C 22.31 0.44 24.86 1.99 26.00 4.71 L 26.00 8.41 C 25.62 10.63 25.22 12.99 23.74 14.78 C 21.63 15.25 19.38 15.31 17.29 14.73 C 16.40 13.75 16.19 12.37 15.67 11.20 C 13.88 11.20 12.09 11.20 10.31 11.20 C 9.90 12.36 9.43 13.50 8.91 14.62 C 6.71 15.22 4.40 15.06 2.14 15.14 C 1.32 12.91 0.51 10.66 0.00 8.32 L 0.00 4.98 C 0.93 2.11 3.53 0.50 6.38 0.00 M 2.06 5.11 C 1.36 7.94 2.49 10.76 3.49 13.37 C 4.94 13.30 6.39 13.23 7.84 13.16 C 7.92 12.32 8.08 10.63 8.16 9.78 C 11.35 9.11 14.63 9.13 17.82 9.75 C 17.91 10.62 18.08 12.34 18.17 13.21 C 19.74 13.22 21.32 13.23 22.90 13.25 C 23.64 10.39 24.89 7.25 23.64 4.36 C 22.03 1.59 18.44 2.01 15.73 1.76 C 16.14 2.45 16.96 3.84 17.37 4.54 C 13.83 3.83 10.66 1.35 6.91 1.90 C 4.92 2.04 2.65 3.03 2.06 5.11 Z" />
<path fill="#255283" opacity="1.00" d=" M 12.08 13.94 C 12.50 13.94 13.36 13.94 13.79 13.93 C 13.83 14.75 13.90 16.37 13.94 17.18 C 13.79 18.90 14.81 20.11 16.17 21.02 C 15.11 22.06 14.06 23.10 13.00 24.14 C 11.87 23.03 10.75 21.92 9.62 20.80 C 10.43 20.28 12.05 19.23 12.86 18.70 C 10.77 18.40 8.48 17.45 6.44 18.47 C 4.64 19.56 5.09 21.89 5.24 23.64 C 5.88 28.05 5.77 32.64 7.73 36.75 C 8.40 33.53 8.37 30.02 10.09 27.13 C 11.11 25.35 14.00 24.92 15.17 26.77 C 17.01 29.68 17.03 33.29 17.92 36.55 C 19.47 31.84 20.30 26.91 20.93 22.01 C 21.36 18.16 16.43 18.43 14.01 17.21 C 16.51 15.99 19.79 16.12 21.71 18.32 C 23.64 20.59 22.61 23.74 22.17 26.36 C 21.27 30.28 21.33 34.62 18.85 38.00 L 16.53 38.00 C 15.39 34.17 14.90 30.12 12.99 26.54 C 10.21 29.74 10.09 34.05 9.40 38.00 L 6.72 38.00 C 3.62 34.27 4.24 29.25 3.48 24.78 C 3.17 22.36 2.66 19.43 4.63 17.53 C 6.60 15.63 9.58 16.32 12.04 16.20 C 12.05 15.64 12.07 14.50 12.08 13.94 Z" />
</g>
<g id="#a8d3f1ff">
<path fill="#a8d3f1" opacity="1.00" d=" M 2.06 5.11 C 2.65 3.03 4.92 2.04 6.91 1.90 C 10.66 1.35 13.83 3.83 17.37 4.54 C 16.96 3.84 16.14 2.45 15.73 1.76 C 18.44 2.01 22.03 1.59 23.64 4.36 C 24.89 7.25 23.64 10.39 22.90 13.25 C 21.32 13.23 19.74 13.22 18.17 13.21 C 18.08 12.34 17.91 10.62 17.82 9.75 C 14.63 9.13 11.35 9.11 8.16 9.78 C 8.08 10.63 7.92 12.32 7.84 13.16 C 6.39 13.23 4.94 13.30 3.49 13.37 C 2.49 10.76 1.36 7.94 2.06 5.11 M 18.37 2.47 C 19.73 5.06 20.90 7.74 21.82 10.51 C 24.27 7.39 21.82 3.40 18.37 2.47 Z" />
</g>
<g id="#eff7fcff">
<path fill="#eff7fc" opacity="1.00" d=" M 18.37 2.47 C 21.82 3.40 24.27 7.39 21.82 10.51 C 20.90 7.74 19.73 5.06 18.37 2.47 Z" />
</g>
<g id="#eaeceeff">
<path fill="#eaecee" opacity="1.00" d=" M 13.94 17.18 L 14.01 17.21 C 16.43 18.43 21.36 18.16 20.93 22.01 C 20.30 26.91 19.47 31.84 17.92 36.55 C 17.03 33.29 17.01 29.68 15.17 26.77 C 14.00 24.92 11.11 25.35 10.09 27.13 C 8.37 30.02 8.40 33.53 7.73 36.75 C 5.77 32.64 5.88 28.05 5.24 23.64 C 5.09 21.89 4.64 19.56 6.44 18.47 C 8.48 17.45 10.77 18.40 12.86 18.70 C 12.05 19.23 10.43 20.28 9.62 20.80 C 10.75 21.92 11.87 23.03 13.00 24.14 C 14.06 23.10 15.11 22.06 16.17 21.02 C 14.81 20.11 13.79 18.90 13.94 17.18 Z" />
</g>
</svg>
