<?xml version="1.0" encoding="utf-8"?>
<!-- Generator: Adobe Illustrator 22.0.1, SVG Export Plug-In . SVG Version: 6.00 Build 0)  -->
<svg version="1.1" id="Layer_1" xmlns="http://www.w3.org/2000/svg" xmlns:xlink="http://www.w3.org/1999/xlink" x="0px" y="0px"
	 viewBox="0 0 288 288" style="enable-background:new 0 0 288 288;" xml:space="preserve">
<style type="text/css">
	.st0{fill-rule:evenodd;clip-rule:evenodd;fill:url(#SVGID_1_);}
</style>
<linearGradient id="SVGID_1_" gradientUnits="userSpaceOnUse" x1="144" y1="18.5" x2="144" y2="269.5">
	<stop  offset="0" style="stop-color:#C3D82E"/>
	<stop  offset="1" style="stop-color:#89AE3F"/>
</linearGradient>
<path class="st0" d="M255.2,90.7c0,35.5,0,71,0,106.5c0.1,5.1-1.9,11.8-9.5,16.4l-92.2,53.2c-7.7,4.3-14.6,2.6-18.9,0l-37.7-21.8
	l-54.5-31.5c-7.6-4.6-9.5-11.3-9.5-16.4c0-35.5,0-71,0-106.5c0.2-8.8,5-13.9,9.5-16.4l92.2-53.3c4.3-2.6,11.2-4.3,18.9,0l92.2,53.3
	C250.1,76.8,255,81.9,255.2,90.7L255.2,90.7z"/>
</svg>
