<?xml version="1.0" encoding="utf-8"?>
<!-- Generator: Adobe Illustrator 22.0.1, SVG Export Plug-In . SVG Version: 6.00 Build 0)  -->
<svg version="1.1" id="Layer_1" xmlns="http://www.w3.org/2000/svg" xmlns:xlink="http://www.w3.org/1999/xlink" x="0px" y="0px"
	 viewBox="0 0 113.4 96.5" style="enable-background:new 0 0 113.4 96.5;" xml:space="preserve">
<style type="text/css">
	.st0{fill:#FFFF;}
	.st1{fill:none;stroke:#295182;stroke-width:4.5;stroke-linecap:round;stroke-linejoin:round;stroke-miterlimit:10;}
	.st2{fill:#E8E9EA;stroke:#295182;stroke-width:4.5;stroke-linecap:round;stroke-miterlimit:10;}
	.st3{fill:#A8D2EF;stroke:#295182;stroke-width:4.5;stroke-miterlimit:10;}
</style>
<path id="XMLID_457_" class="st0" d="M33.8,27.2c-1.6-0.5-4.7-1.4-8.4-0.7c-2.1,0.4-3.7,1.1-4.9,1.7l-0.3-1
	c-0.8-2.6-1.8-5.2-2.7-7.8c-0.6-1.6-0.9-3.3-0.9-5.1c0-3,0.7-5.4,1.7-7.1c1.5-2.7,4.4-4.3,7.5-4.4l0,0c0.5,0,1,0,1.5,0.1l7,1.2
	l6.9-1.3c0.5-0.1,1-0.1,1.5-0.2l0,0c3.1,0,6,1.5,7.6,4.2c0.5,0.9,1,1.9,1.3,3c0.3,1.2,0.5,2.5,0.6,4c0,1.7-0.3,3.5-0.8,5.1
	c-1,2.8-1.4,3.8-2.7,8.1c-0.1,0.3-0.2,0.6-0.2,0.8"/>
<path id="XMLID_456_" class="st0" d="M66.2,27.8c-0.1-0.2-0.1-0.4-0.2-0.8c-1.3-4.3-1.8-5.3-2.9-8c-0.6-1.6-0.9-3.3-0.9-5.1
	c0-1.5,0.2-2.9,0.5-4c0.3-1.2,0.7-2.2,1.2-3.1c1.5-2.7,4.4-4.3,7.5-4.3l0,0c0.5,0,1,0,1.5,0.1l7,1.2l6.9-1.3c0.5-0.1,1-0.1,1.5-0.2
	l0,0c3.1,0,6,1.5,7.6,4.2c1,1.7,1.8,4,1.8,7c0,1.7-0.3,3.5-0.8,5.1c-0.9,2.6-1.8,5.2-2.6,7.8l-0.3,1c-1.2-0.6-2.8-1.3-4.9-1.6
	c-3.8-0.6-6.9,0.3-8.4,0.9"/>
<path id="XMLID_2_" class="st1" d="M33.8,27.2c-1.6-0.5-4.7-1.4-8.4-0.7c-2.1,0.4-3.7,1.1-4.9,1.7l-0.3-1c-0.8-2.6-1.8-5.2-2.7-7.8
	c-0.6-1.6-0.9-3.3-0.9-5.1c0-3,0.7-5.4,1.7-7.1c1.5-2.7,4.4-4.3,7.5-4.4l0,0c0.5,0,1,0,1.5,0.1l7,1.2l6.9-1.3c0.5-0.1,1-0.1,1.5-0.2
	l0,0c3.1,0,6,1.5,7.6,4.2c0.5,0.9,1,1.9,1.3,3c0.3,1.2,0.5,2.5,0.6,4c0,1.7-0.3,3.5-0.8,5.1c-1,2.8-1.4,3.8-2.7,8.1
	c-0.1,0.3-0.2,0.6-0.2,0.8"/>
<path id="XMLID_1_" class="st1" d="M66.2,27.8c-0.1-0.2-0.1-0.4-0.2-0.8c-1.3-4.3-1.8-5.3-2.9-8c-0.6-1.6-0.9-3.3-0.9-5.1
	c0-1.5,0.2-2.9,0.5-4c0.3-1.2,0.7-2.2,1.2-3.1c1.5-2.7,4.4-4.3,7.5-4.3l0,0c0.5,0,1,0,1.5,0.1l7,1.2l6.9-1.3c0.5-0.1,1-0.1,1.5-0.2
	l0,0c3.1,0,6,1.5,7.6,4.2c1,1.7,1.8,4,1.8,7c0,1.7-0.3,3.5-0.8,5.1c-0.9,2.6-1.8,5.2-2.6,7.8l-0.3,1c-1.2-0.6-2.8-1.3-4.9-1.6
	c-3.8-0.6-6.9,0.3-8.4,0.9"/>
<path id="XMLID_454_" class="st2" d="M50.6,41.1c1.4-0.8,3.4-1.6,5.9-1.7c3.1-0.1,5.5,0.8,7.1,1.6"/>
<path id="XMLID_453_" class="st2" d="M95.7,40.9c1.7-0.7,4.1-1.4,7.1-1.3c0.4,0,0.7,0,1.1,0.1c3.9,0.3,6.8,3.7,6.9,7.6l0.2,35
	c0,6.6-5.3,12-11.9,12H14.4C7.8,94.3,2.5,89,2.5,82.4L2.3,47.5c0-3.6,2.4-6.9,6-7.6c0,0,0.1,0,0.1,0c4.4-0.8,8.1,0.6,10.2,1.7"/>
<path id="XMLID_458_" class="st3" d="M79.6,34.7l6.3-1c0.5-0.1,0.9-0.1,1.4-0.1l0,0c2.8,0,5.5,1.2,6.9,3.2c0.9,1.3,1.6,3.1,1.6,5.5
	l0,0c0,2-0.6,4-1.7,5.8l-1.8,2.7c-0.8,1.3-1.4,2.7-1.5,4.2c-0.3,3.4-1.5,6.7-3.4,9.7l-1.2,1.8c-0.3,0.5-0.9,0.7-1.5,0.8l0,0
	c-1,0-1.7-0.6-1.7-1.5l0-2.8c0-1.4-0.3-2.9-0.9-4.2l-0.5-1.1c-0.3-0.6-1-1-1.7-1l0,0c-0.8,0-1.5,0.4-1.7,1.1L77.6,59
	c-0.5,1.3-0.7,2.6-0.7,3.9l0,3c0,0.8-0.8,1.5-1.7,1.5l0,0c-0.6,0-1.2-0.3-1.5-0.7l-1.2-1.8c-2-3-3.3-6.3-3.7-9.7
	c-0.2-1.5-0.7-2.9-1.6-4.2l-1.8-2.7c-1.2-1.8-1.8-3.7-1.9-5.8l0,0c0-2.4,0.7-4.2,1.5-5.5c1.4-2.1,4-3.4,6.8-3.4l0,0
	c0.5,0,0.9,0,1.4,0.1L79.6,34.7"/>
<path id="XMLID_455_" class="st3" d="M34.5,35.2l6.3-1c0.5-0.1,0.9-0.1,1.4-0.1l0,0c2.8,0,5.5,1.2,6.9,3.2c0.9,1.3,1.6,3.1,1.6,5.5
	l0,0c0,2-0.6,4-1.7,5.8l-1.8,2.7c-0.8,1.3-1.4,2.7-1.5,4.2c-0.3,3.4-1.5,6.7-3.4,9.7l-1.2,1.8c-0.3,0.5-0.9,0.7-1.5,0.8l0,0
	c-1,0-1.7-0.6-1.7-1.5l0-2.8c0-1.4-0.3-2.9-0.9-4.2l-0.5-1.1c-0.3-0.6-1-1-1.7-1l0,0c-0.8,0-1.5,0.4-1.7,1.1l-0.5,1.2
	c-0.5,1.3-0.7,2.6-0.7,3.9l0,3c0,0.8-0.8,1.5-1.7,1.5l0,0c-0.6,0-1.2-0.3-1.5-0.7l-1.2-1.8c-2-3-3.3-6.3-3.7-9.7
	c-0.2-1.5-0.7-2.9-1.6-4.2l-1.8-2.7c-1.2-1.8-1.8-3.7-1.9-5.8l0,0c0-2.4,0.7-4.2,1.5-5.5c1.4-2.1,4-3.4,6.8-3.4l0,0
	c0.5,0,0.9,0,1.4,0.1L34.5,35.2"/>
</svg>
