<?xml version="1.0" encoding="utf-8"?>
<!-- Generator: Adobe Illustrator 22.0.1, SVG Export Plug-In . SVG Version: 6.00 Build 0)  -->
<svg version="1.1" id="Layer_1" xmlns="http://www.w3.org/2000/svg" xmlns:xlink="http://www.w3.org/1999/xlink" x="0px" y="0px"
	 viewBox="0 0 90.8 84.3" style="enable-background:new 0 0 90.8 84.3;" xml:space="preserve">
<style type="text/css">
	.st0{fill:#A8D2EF;}
	.st1{fill:#E8E9EA;stroke:#295182;stroke-width:4.5;stroke-linecap:round;stroke-linejoin:round;stroke-miterlimit:10;}
	.st2{fill:none;stroke:#295182;stroke-width:4.5;stroke-linecap:round;stroke-linejoin:round;stroke-miterlimit:10;}
	.st3{fill:none;stroke:#295182;stroke-width:4.5;stroke-linejoin:round;stroke-miterlimit:10;}
	.st4{fill:none;stroke:#FFFFFF;stroke-width:4;stroke-linecap:round;stroke-miterlimit:10;}
</style>
<g>
	<ellipse transform="matrix(0.1826 -0.9832 0.9832 0.1826 -3.9944 79.725)" class="st0" cx="45.9" cy="42.3" rx="31.3" ry="31.3"/>
	<g>
		<path class="st1" d="M65.1,29.2c-0.1-3.5-1.5-5.5-3.6-7c-2.1-1.4-5.1-2.1-8.1-2.1c-2.8,0-5.5,0.6-7.3,1.4l-0.7,0.3l-0.7-0.3
			c-1.5-0.7-3.5-1.2-5.7-1.3l-3.8,0.1c-2.2,0.2-4.3,0.9-5.9,2c-2.1,1.5-3.5,3.5-3.6,7c0,0.3,0,0.5,0,0.8c0,5,1.2,6.7,2.6,9.3
			c1.4,2.5,3.1,5.6,3,11.4c0,6.8,1.1,10.7,2.4,12.8c1.3,2.1,1.7,2.4,3.1,2.4c1.5,0,2-1.5,2-2.3c0.3-2.9-0.2-7.3,1.2-12.1
			c0.4-1.3,0.9-3,1.9-4.5c1.3-2,4.9-3.6,7.2,0c0.9,1.5,1.5,3.1,1.9,4.5C52,55.2,52.3,59,52,61.9c-0.4,4,2,4,2.1,4
			c1.3,0,1.8-0.3,3.1-2.4c1.3-2.1,2.4-6.1,2.4-12.8c0-5.8,1.6-9,3-11.4c1.4-2.5,2.5-4.3,2.6-9.2C65.2,29.8,65.1,29.5,65.1,29.2z"/>
		<line class="st2" x1="45.4" y1="21.9" x2="50.4" y2="24.5"/>
		<path class="st3" d="M6.5,50.8C10.5,68.7,26.4,82,45.5,82c19,0,34.9-13.3,38.9-31.2"/>
		<path class="st3" d="M84.4,33.4c-4-17.8-19.9-31.2-38.9-31.2c-19,0-34.9,13.3-38.9,31.2"/>
		<polyline class="st3" points="16,34.8 2.3,34.8 2.3,21 		"/>
		<polyline class="st3" points="74.9,49.5 88.6,49.5 88.6,63.2 		"/>
	</g>
	<path class="st4" d="M36.3,27.9c-1.3,0.4-2.2,1.6-2.5,3"/>
</g>
</svg>
