<?xml version="1.0" encoding="utf-8"?>
<!-- Generator: Adobe Illustrator 22.0.1, SVG Export Plug-In . SVG Version: 6.00 Build 0)  -->
<svg version="1.1" id="Layer_1" xmlns="http://www.w3.org/2000/svg" xmlns:xlink="http://www.w3.org/1999/xlink" x="0px" y="0px"
	 viewBox="0 0 127.7 73.7" style="enable-background:new 0 0 127.7 73.7;" xml:space="preserve">
<style type="text/css">
	.st0{fill:#A8D2EF;stroke:#295182;stroke-width:4.5;stroke-miterlimit:10;}
	.st1{fill:#E8E9EA;stroke:#295182;stroke-width:4.5;stroke-linecap:round;stroke-linejoin:round;stroke-miterlimit:10;}
</style>
<path id="XMLID_460_" class="st0" d="M8.5,22.6L8.5,22.6c-3.4,0-6.2,2.8-6.2,6.2v19c0,4.3,0.6,8.6,1.7,12.8l0,0
	c1.7,6.4,7.5,10.8,14.1,10.8h90.7c6,0,11.4-3.7,13.6-9.2l0,0c2.1-5.2,3.1-10.8,3.1-16.4V28.8c0-3.4-2.8-6.2-6.2-6.2l0,0"/>
<path id="XMLID_494_" class="st1" d="M17.9,41.4c0.5,3.6,3.3,6.5,6.9,6.8c0,0,0.1,0,0.1,0c0.7,0.1,1.5,0,2.1,0
	c3.5-0.4,6.2-3.2,6.7-6.6c1.5-9.6,3-19.2,4.6-28.7c0.4-2.7-1.1-5.3-3.7-6.2c-2.2-0.8-5-1.4-8.2-1.4c-3.5,0-6.9,0.7-9.5,1.5
	c-2.7,0.8-4.4,3.4-4,6.2C14.4,22.4,16.4,31.9,17.9,41.4z"/>
<path id="XMLID_493_" class="st1" d="M43.3,38.5c0.5,3.6,3.3,6.5,6.9,6.8c0,0,0.1,0,0.1,0c0.7,0.1,1.5,0,2.1,0
	c3.5-0.4,6.2-3.2,6.7-6.6c1.5-9.6,3-19.2,4.6-28.7c0.4-2.7-1.1-5.3-3.7-6.2c-2.2-0.8-5-1.4-8.2-1.4c-3.5,0-6.9,0.7-9.5,1.5
	c-2.7,0.8-4.4,3.4-4,6.2C39.9,19.5,41.9,29,43.3,38.5z"/>
<path id="XMLID_492_" class="st1" d="M68.8,38.5c0.5,3.6,3.3,6.5,6.9,6.8c0,0,0.1,0,0.1,0c0.7,0.1,1.5,0,2.1,0
	c3.5-0.4,6.2-3.2,6.7-6.6c1.5-9.6,3-19.2,4.6-28.7c0.4-2.7-1.1-5.3-3.7-6.2c-2.2-0.8-5-1.4-8.2-1.4c-3.5,0-6.9,0.7-9.5,1.5
	c-2.7,0.8-4.4,3.4-4,6.2C65.4,19.5,67.4,29,68.8,38.5z"/>
<path id="XMLID_491_" class="st1" d="M94.3,41.8c0.5,3.6,3.3,6.5,6.9,6.8c0,0,0.1,0,0.1,0c0.7,0.1,1.5,0,2.1,0
	c3.5-0.4,6.2-3.2,6.7-6.6c1.5-9.6,3-19.2,4.6-28.7c0.4-2.7-1.1-5.3-3.7-6.2c-2.2-0.8-5-1.4-8.2-1.4c-3.5,0-6.9,0.7-9.5,1.5
	c-2.7,0.8-4.4,3.4-4,6.2C90.8,22.8,92.8,32.3,94.3,41.8z"/>
</svg>
