<?xml version="1.0" encoding="utf-8"?>
<!-- Generator: Adobe Illustrator 22.0.1, SVG Export Plug-In . SVG Version: 6.00 Build 0)  -->
<svg version="1.1" id="Layer_1" xmlns="http://www.w3.org/2000/svg" xmlns:xlink="http://www.w3.org/1999/xlink" x="0px" y="0px"
	 viewBox="0 0 117 78.8" style="enable-background:new 0 0 117 78.8;" xml:space="preserve">
<style type="text/css">
	.st0{fill:#A8D2EF;stroke:#295182;stroke-width:4.5;stroke-miterlimit:10;}
	.st1{fill:#FFFFFF;stroke:#295182;stroke-width:4.5;stroke-miterlimit:10;}
</style>
<path id="XMLID_737_" class="st0" d="M36,23.7c1.3-0.7,3.2-1.4,5.7-1.6c2.3-0.1,4.2,0.4,5.6,0.9"/>
<path id="XMLID_735_" class="st0" d="M69.9,23.1L69.9,23.1c1.2-0.6,2.9-1.1,4.8-1.1c2.8-0.1,5,0.6,6.4,1.3"/>
<path id="XMLID_497_" class="st0" d="M102,24.6c0.4-0.4,2.8-2.7,6.6-2.6c0,0,0.1,0,0.1,0c3.4,0.1,6,3,6,6.4V67
	c0,5.3-4.3,9.5-9.5,9.5H11.8c-5.3,0-9.5-4.3-9.5-9.5V28.5c0-3.3,2.5-6.1,5.7-6.3c0.2,0,0.4,0,0.7,0c3.6,0,6,2,6.6,2.5"/>
<path id="XMLID_731_" class="st0" d="M25.3,3.7l5.9-1c0.4-0.1,0.9-0.1,1.3-0.1l0,0c2.6,0,5.1,1.2,6.5,3.3c0.9,1.4,1.5,3.2,1.5,5.6
	l0,0c0,2.1-0.5,4.1-1.6,5.9l-1.7,2.8c-0.8,1.3-1.3,2.8-1.4,4.3c-0.3,3.5-1.4,6.9-3.2,9.9l-1.1,1.8c-0.3,0.5-0.8,0.8-1.4,0.8l0,0
	c-0.9,0-1.6-0.7-1.6-1.5l0-2.9c0-1.5-0.3-2.9-0.9-4.3l-0.5-1.1c-0.3-0.6-0.9-1-1.6-1l0,0c-0.7,0-1.4,0.5-1.6,1.1l-0.4,1.2
	c-0.5,1.3-0.7,2.7-0.7,4l0,3c0,0.8-0.7,1.5-1.6,1.5l0,0c-0.6,0-1.1-0.3-1.4-0.7l-1.1-1.8c-1.9-3-3.1-6.4-3.4-9.9
	c-0.2-1.5-0.7-2.9-1.5-4.2L12,17.6c-1.1-1.8-1.7-3.8-1.8-5.9l0,0c0-2.4,0.6-4.3,1.4-5.6C13,4,15.4,2.7,18.1,2.7l0,0
	c0.4,0,0.9,0,1.3,0.1L25.3,3.7"/>
<path id="XMLID_750_" class="st0" d="M102,24.5c0-0.1,0-0.2,0-0.4c0.1-1.5,0.6-3,1.4-4.3l1.7-2.8c1.1-1.8,1.6-3.8,1.6-5.8
	c0,0,0-0.1,0-0.1c0-2.4-0.7-4.2-1.5-5.6c-1.3-2.1-3.8-3.3-6.5-3.3h0c-0.4,0-0.9,0.1-1.3,0.1l-5.9,1l-5.9-0.9
	c-0.4-0.1-0.9-0.1-1.3-0.1h0c-2.6,0-5.1,1.3-6.4,3.4c-0.8,1.4-1.4,3.2-1.4,5.5c0,0,0,0.1,0,0.1c0,2.1,0.6,4.1,1.8,5.9l1.7,2.7
	c0.6,0.9,1,2,1.3,3c0.1,0.4,0.2,0.8,0.2,1.2c0.4,3.5,1.5,6.8,3.4,9.9l1.2,1.8c0.3,0.5,0.8,0.7,1.4,0.7c0,0,0,0,0,0
	c0.9,0,1.6-0.7,1.6-1.5l0-3c0-1.4,0.2-2.7,0.7-4l0.4-1.2c0.2-0.7,0.9-1.1,1.6-1.1c0.7,0,1.4,0.4,1.6,1l0.5,1.1
	c0.6,1.4,0.9,2.8,0.9,4.3l0,2.9c0,0.8,0.7,1.5,1.6,1.5c0,0,0,0,0,0c0.6,0,1.1-0.3,1.4-0.8l1.1-1.8C100.6,31.1,101.7,27.9,102,24.5"
	/>
<g>
	<path id="XMLID_730_" class="st1" d="M47.3,22.7l-0.2-0.8c-0.6-2.1-1.4-4.2-2.1-6.3c-0.5-1.3-0.7-2.7-0.7-4.1
		c0-2.5,0.6-4.3,1.4-5.7c1.2-2.2,3.6-3.5,6.1-3.5h0c0.4,0,0.8,0,1.2,0.1l5.6,1l5.6-1c0.4-0.1,0.8-0.1,1.2-0.1h0
		c2.5,0,4.9,1.3,6.1,3.4c0.4,0.7,0.8,1.5,1,2.5c0.3,0.9,0.4,2,0.4,3.3c0,1.4-0.2,2.8-0.7,4.1c-0.8,2.2-1.6,4.3-2.2,6.5l-0.2,0.6"/>
	<path id="XMLID_729_" class="st0" d="M69.9,22.7l-1.8,6.9c-0.3,1.2-1.4,2.1-2.7,2.1H51.8c-1.3,0-2.4-0.9-2.7-2.1l-1.8-6.9H69.9z"/>
	<g id="XMLID_671_">
		<path id="XMLID_736_" class="st0" d="M58.6,56.4L54,52.3c-0.8-0.8-1.3-1.8-1.3-3V39.2c0-1.8-0.4-3.7-1.1-5.3c-0.4-1-1-1.9-1.6-2.8
			"/>
		<path id="XMLID_732_" class="st0" d="M58.6,56.4l4.6-4.1c0.8-0.8,1.3-1.8,1.3-3V39.2c0-2.9,0.9-5.8,2.7-8.1"/>
	</g>
	<path id="XMLID_716_" class="st0" d="M64.5,37.9L64,37.6c-1.7-1.2-3.6-2-5.7-2.4l-6.7-1.4v0"/>
	<path id="XMLID_507_" class="st0" d="M52.7,39.7l5.6,1.2c2.2,0.5,4.3,1.3,6.2,2.5"/>
	<path id="XMLID_505_" class="st0" d="M52.7,45.3l5.6,1.2c1,0.2,2,0.5,3,0.9c1.1,0.4,2.2,1,3.2,1.6"/>
	<path id="XMLID_499_" class="st0" d="M52.8,50.2L52.8,50.2l5.5,1.1c1.5,0.3,2.9,0.8,4.3,1.5"/>
</g>
</svg>
