<?xml version="1.0" encoding="utf-8"?>
<!-- Generator: Adobe Illustrator 22.0.1, SVG Export Plug-In . SVG Version: 6.00 Build 0)  -->
<svg version="1.1" id="Layer_1" xmlns="http://www.w3.org/2000/svg" xmlns:xlink="http://www.w3.org/1999/xlink" x="0px" y="0px"
	 viewBox="0 0 66 82.1" style="enable-background:new 0 0 66 82.1;" xml:space="preserve">
<style type="text/css">
	.st0{fill:#A8D2EF;stroke:#295182;stroke-width:4.5;stroke-miterlimit:10;}
	.st1{fill:#FFFFFF;}
	.st2{fill:none;stroke:#295182;stroke-width:4.5;stroke-linecap:round;stroke-linejoin:round;stroke-miterlimit:10;}
</style>
<path id="XMLID_17_" class="st0" d="M51.2,30.8H59c2.6,0,4.7,2.1,4.7,4.7v34c0,5.7-4.6,10.3-10.3,10.3H12.6
	c-5.7,0-10.3-4.6-10.3-10.3v-34c0-2.6,2.1-4.7,4.7-4.7h7.2"/>
<path id="XMLID_20_" class="st0" d="M26.6,30.8l-8.1,0c0.7,3,1.4,6,2.2,9c1.1,4.1,2.1,9.8,5,13.1c1.1,1.3,2.9,1.3,3.7-0.4
	c0.6-1.3,0.2-3.3,0.2-4.6c0-1.8,0.3-3.6,0.9-5.4l0.6-1.6c0.3-0.9,1.1-1.5,2-1.5c0.9,0,1.7,0.6,2,1.4l0.6,1.5c1,2.8,1,5.5,1,8.4
	c0,1.4,0.4,3.2,2.1,3.2c3.6,0,5.6-10.1,6.3-12.6c0.2-0.7,2.2-10.5,2.5-10.5c0,0-8.7,0-8.7,0c-0.2-3.1-2.7-5.6-5.7-5.7
	C29.7,25,26.8,27.5,26.6,30.8z"/>
<path id="XMLID_18_" class="st1" d="M49.8,22.1c1.4-2.4,2.1-5.1,2.1-7.9c0-3.2-0.8-5.7-1.8-7.5c-1.6-2.8-4.7-4.5-8-4.5h0
	c-0.5,0-1.1,0-1.6,0.1L33,3.7l-7.4-1.3c-0.5-0.1-1.1-0.1-1.6-0.1h0c-3.3,0-6.4,1.7-8,4.5c-1,1.8-1.9,4.3-1.9,7.5
	c0,2.8,0.7,5.5,2.1,7.9h9.4c0.5-0.5,2.8-3.1,6.7-3.4c4.7-0.4,7.8,3,8.1,3.4C43.6,22.1,46.7,22.1,49.8,22.1z"/>
<path id="XMLID_3_" class="st2" d="M49.8,22.1c1.4-2.4,2.1-5.1,2.1-7.9c0-3.2-0.8-5.7-1.8-7.5c-1.6-2.8-4.7-4.5-8-4.5h0
	c-0.5,0-1.1,0-1.6,0.1L33,3.7l-7.4-1.3c-0.5-0.1-1.1-0.1-1.6-0.1h0c-3.3,0-6.4,1.7-8,4.5c-1,1.8-1.9,4.3-1.9,7.5
	c0,2.8,0.7,5.5,2.1,7.9h9.4c0.5-0.5,2.8-3.1,6.7-3.4c4.7-0.4,7.8,3,8.1,3.4C43.6,22.1,46.7,22.1,49.8,22.1z"/>
<line id="XMLID_73_" class="st0" x1="26.6" y1="30.8" x2="27.1" y2="33"/>
<line id="XMLID_74_" class="st0" x1="38.6" y1="30.8" x2="38.1" y2="33"/>
</svg>
