<?xml version="1.0" encoding="utf-8"?>
<!-- Generator: Adobe Illustrator 22.0.1, SVG Export Plug-In . SVG Version: 6.00 Build 0)  -->
<svg version="1.1" id="Layer_1" xmlns="http://www.w3.org/2000/svg" xmlns:xlink="http://www.w3.org/1999/xlink" x="0px" y="0px"
	 viewBox="0 0 100.5 94.9" style="enable-background:new 0 0 100.5 94.9;" xml:space="preserve">
<style type="text/css">
	.st0{fill:#E8E9EA;}
	.st1{fill:#A8D2EF;}
	.st2{fill:none;stroke:#295182;stroke-width:4.5;stroke-linecap:round;stroke-linejoin:round;stroke-miterlimit:10;}
	.st3{fill:none;stroke:#295182;stroke-width:4.5;stroke-miterlimit:10;}
	.st4{fill:none;stroke:#295182;stroke-width:4.5;stroke-linejoin:round;stroke-miterlimit:10;}
	.st5{fill:none;stroke:#FFFFFF;stroke-width:4.5;stroke-linecap:round;stroke-linejoin:round;stroke-miterlimit:10;}
</style>
<g>
	<g>
		<path class="st0" d="M47,60.9c-0.1-0.5-0.2-1.3,0.3-2.3c0.4-0.7,1-1.1,1.8-1.1c0.9,0,1.7,0.5,1.9,0.7l5.3,2.8
			c0-3-0.3-10.3-4.2-14.5c-0.8-0.9-1.8-1.6-2.8-2.1c-0.2,0-0.3-0.1-0.4-0.2c-1.3-0.6-2.8-0.8-4.4-0.8c-3.2,0-5.8,1.1-7.7,3.1
			c-4.9,5.3-4.2,15.6-4.2,15.8l0,4.6c0,2.3,1.8,4.1,4.1,4.1h15.5c1.4,0,2.7-0.7,3.4-1.9l-7.3-6.5C48,62.4,47.3,61.9,47,60.9z"/>
		<path class="st0" d="M58.1,57.2h10.3c2,0,3.6-1.6,3.6-3.6v-4.1c0-0.2,0.7-9.5-3.7-14.3c-1.7-1.9-4-2.8-6.9-2.8
			c-5.9,0-9.4,3.6-10.4,10.6c0,0,0,0.1,0,0.1c0.9,0.6,1.8,1.2,2.5,2.1C56.7,48.6,57.8,53.5,58.1,57.2z"/>
		<path class="st0" d="M44.4,41.5c1.3,0,2.6,0.2,3.7,0.5c-1-4.7-3.6-9.5-10-9.5c-2.8,0-5.2,0.9-6.9,2.8c-4.4,4.8-3.7,14.1-3.7,14.2
			l0,4.1c0,1.8,1.4,3.4,3.2,3.6c0.4-3.7,1.5-8.6,4.6-11.9C37.6,42.8,40.7,41.5,44.4,41.5z"/>
		<path class="st0" d="M16.3,30.7c-4.2,0-4.3,8.9-4.3,9V49c0,1.7,1.4,3,3,3h7.5c1.7,0,3-1.3,3-3v-0.8c0-0.2,0-0.4,0-0.6v-2.2
			C25.5,45.3,24.6,30.7,16.3,30.7z"/>
		<path class="st1" d="M92.1,24.8c0-0.1-4-17.8-42-17.8C12.1,7,7.5,24.7,7.5,24.9c-0.4,2.9-1.2,11.4,0,14.3c0.7,1.8,1.8,2.3,2.5,2.4
			v-2c0-0.4,0.1-11,6.3-11c6.4,0,9.1,6.2,10.3,11.1c0.6-2.1,1.6-4.2,3.2-5.8c2.1-2.3,4.9-3.5,8.4-3.5c5.7,0,9.7,3.3,11.6,9.4
			c1.7-6.2,5.7-9.4,11.8-9.4c3.4,0,6.2,1.2,8.4,3.5c1.5,1.7,2.5,3.7,3.2,5.8c1.2-4.9,3.9-11.1,10.3-11.1c6.3,0,6.3,10.5,6.3,11v2
			c0.7-0.1,1.8-0.6,2.5-2.4C93.3,36.4,92.5,27.9,92.1,24.8z"/>
		<path class="st0" d="M83.3,30.7c-8.3,0-9.1,14.7-9.1,14.8l0,2.2c0,0.1,0,0.3,0,0.4V49c0,1.7,1.3,3,3,3h7.5c1.7,0,3-1.3,3-3v-9.3
			C87.6,39.5,87.5,30.7,83.3,30.7z"/>
		<path class="st1" d="M75.6,73.8L49.9,59.9c-0.2-0.1-0.6-0.3-0.8-0.3c-0.3,0.6-0.2,1.1,0.3,1.4l0.2,0.1l20.3,18.1l3.9,13l7.5-1.6
			l-4.2-14.4C76.9,75.1,76.4,74.3,75.6,73.8z"/>
	</g>
	<g>
		<path class="st2" d="M11.4,39.5v9.3c0,2.2,1.8,4,4,4h7.5c2.2,0,4-1.8,4-4v-3.5c0,0-0.8-15.8-10.1-15.8
			C11.4,29.6,11.4,39.5,11.4,39.5z"/>
		<path class="st2" d="M49.9,43.5c-0.8-5.3-3.3-12.1-11.3-12.1c-13.1,0-11.6,18.1-11.6,18.1v4.1c0,2.5,2.1,4.6,4.6,4.6"/>
		<path class="st2" d="M57.7,58.1h11.2c2.5,0,4.6-2.1,4.6-4.6v-4.1c0,0,1.4-18.1-11.6-18.1c-8.1,0-10.6,6.3-11.4,11.5"/>
		<path class="st3" d="M72.5,92.2l-3.1-12.6L49.3,61.7c0,0-1.7-0.9-0.7-2.7c0.7-1.2,2.3,0,2.3,0l25.7,13.8c1,0.7,1.7,1.8,1.9,2.9
			L82,90.2"/>
		<polyline class="st4" points="52.6,71.9 64.6,84.8 64.6,92.2 		"/>
		<path class="st4" d="M57.3,68.8c-0.8,1.8-2.6,3.1-4.7,3.1H37.1c-2.8,0-5.1-2.3-5.1-5.1v-4.5c0,0-1.6-20,12.8-20
			c14.4,0,12.8,20,12.8,20"/>
		<path class="st2" d="M11.4,42.5c0,0-3,0.7-4.5-3c-1.5-3.7,0-14.9,0-14.9S11.1,5.9,50.5,5.9c39.4,0,43,18.7,43,18.7
			s1.5,11.2,0,14.9c-1.5,3.7-4.5,3-4.5,3"/>
		<path class="st2" d="M89,39.5v9.3c0,2.2-1.8,4-4,4h-7.5c-2.2,0-4-1.8-4-4v-3.5c0,0,0.8-15.8,10.1-15.8C89,29.6,89,39.5,89,39.5z"
			/>
	</g>
	<path class="st5" d="M23.3,19.6c0,0,9-6.5,25-4.1"/>
	<path class="st5" d="M44.8,49.1c0,0-7,0-6.5,7.1"/>
</g>
</svg>
