<?xml version="1.0" encoding="utf-8"?>
<!-- Generator: Adobe Illustrator 22.0.1, SVG Export Plug-In . SVG Version: 6.00 Build 0)  -->
<svg version="1.1" id="Layer_1" xmlns="http://www.w3.org/2000/svg" xmlns:xlink="http://www.w3.org/1999/xlink" x="0px" y="0px"
	 viewBox="0 0 63.6 94.7" style="enable-background:new 0 0 63.6 94.7;" xml:space="preserve">
<style type="text/css">
	.st0{fill:#E8E9EA;stroke:#295182;stroke-width:4.5;stroke-linecap:round;stroke-linejoin:round;stroke-miterlimit:10;}
	.st1{fill:none;stroke:#295182;stroke-width:4.5;stroke-linecap:round;stroke-linejoin:round;stroke-miterlimit:10;}
	.st2{fill:#A8D2EF;stroke:#295182;stroke-width:4.5;stroke-linecap:round;stroke-linejoin:round;stroke-miterlimit:10;}
	.st3{fill:none;stroke:#FFFFFF;stroke-width:4.5;stroke-linecap:round;stroke-linejoin:round;stroke-miterlimit:10;}
</style>
<g>
	<g>
		<path class="st0" d="M61.3,37.5c-0.2-5.3-2.3-8.3-5.4-10.5c-3.2-2.1-7.7-3.1-12.1-3.1c-4.1,0-8.2,0.9-10.9,2.1l-1.1,0.5l-1.1-0.5
			c-2.2-1-5.3-1.7-8.5-2L16.6,24c-3.3,0.4-6.5,1.3-8.9,3c-3.2,2.2-5.2,5.2-5.4,10.5c0,0.4,0,0.8,0,1.2C2.3,46.1,4,48.7,6.1,52.5
			c2.1,3.7,4.6,8.4,4.5,17.1c0,10.1,1.7,16.1,3.6,19.2c1.9,3.2,2.5,3.6,4.6,3.6c2.2,0,2.9-2.2,3-3.4c0.4-4.3-0.3-11,1.8-18.1
			c0.6-2,1.4-4.5,2.8-6.7c2-3,7.4-5.4,10.7,0c1.4,2.3,2.2,4.7,2.8,6.7c1.6,5.4,2.1,11.1,1.7,15.5c-0.5,6,3,6,3.1,6
			c1.9,0,2.7-0.5,4.6-3.6c1.9-3.1,3.6-9.1,3.6-19.2c-0.1-8.7,2.4-13.4,4.5-17.1c2.1-3.7,3.8-6.4,3.8-13.9
			C61.4,38.3,61.3,37.9,61.3,37.5z"/>
		<path class="st1" d="M44.6,24.2c0,5.4-5.7,9.8-12.8,9.8C24.8,34,19,29.6,19,24.2"/>
		<path class="st2" d="M44.6,5.3c0,5.4-5.7,9.8-12.8,9.8c-7.1,0-12.8-4.4-12.8-9.8c0-5.4,5.7-1.8,12.8-1.8
			C38.9,3.4,44.6-0.2,44.6,5.3z"/>
	</g>
	<path class="st3" d="M14.9,35c-3,1.9-4.1,5.6-3,9.1"/>
</g>
</svg>
