<?xml version="1.0" encoding="utf-8"?>
<!-- Generator: Adobe Illustrator 22.0.1, SVG Export Plug-In . SVG Version: 6.00 Build 0)  -->
<svg version="1.1" id="Layer_1" xmlns="http://www.w3.org/2000/svg" xmlns:xlink="http://www.w3.org/1999/xlink" x="0px" y="0px"
	 viewBox="0 0 56.8 88.8" style="enable-background:new 0 0 56.8 88.8;" xml:space="preserve">
<style type="text/css">
	.st0{fill:#A8D2EF;}
	.st1{fill:#FFFFFF;stroke:#295182;stroke-width:4.5;stroke-miterlimit:10;}
	.st2{fill:none;stroke:#295182;stroke-width:4.5;stroke-linejoin:round;stroke-miterlimit:10;}
	.st3{fill:none;stroke:#295182;stroke-width:4.5;stroke-miterlimit:10;}
	.st4{fill:#E8E9EA;stroke:#295182;stroke-width:4.5;stroke-linecap:round;stroke-miterlimit:10;}
	.st5{fill:none;stroke:#295182;stroke-width:4.5;stroke-linecap:round;stroke-linejoin:round;stroke-miterlimit:10;}
	.st6{fill:none;stroke:#FFFFFF;stroke-width:4;stroke-linecap:round;stroke-miterlimit:10;}
</style>
<g>
	<polygon class="st0" points="38.7,77.5 28.4,86.6 18,77.5 18,45.2 38.7,45.2 	"/>
	<g>
		<rect x="13.3" y="37.3" class="st1" width="30.2" height="7.9"/>
		<polygon class="st2" points="38.7,77.5 28.4,86.6 18,77.5 		"/>
		<polygon class="st3" points="38.7,55.8 18,51.2 18,45.2 38.7,45.2 		"/>
		<polyline class="st3" points="38.7,61.6 38.7,67.8 18,63.2 18,57 		"/>
		<polyline class="st3" points="38.7,73.6 38.7,77.5 18,77.5 18,69 		"/>
		<path class="st4" d="M54.5,14.3c-0.2-4.6-2-7.3-4.8-9.3C46.9,3.1,42.9,2.2,39,2.3c-3.6,0-7.2,0.8-9.7,1.9l-1,0.4l-1-0.4
			c-1.9-0.9-4.7-1.5-7.5-1.8l-5,0.1C12,2.7,9.2,3.6,7,5c-2.8,1.9-4.6,4.6-4.8,9.3c0,0.4,0,5.5,4.2,14.9c2.1,4.7,3.2,8.2,3.2,8.2
			h37.5c0,0,1.4-4.3,3.1-8.1c2.2-4.9,3.9-9.4,4.2-13.9C54.5,15,54.5,14.6,54.5,14.3z"/>
		<line class="st5" x1="28.4" y1="4.5" x2="38.1" y2="9.7"/>
		<line class="st3" x1="13.3" y1="50.1" x2="43.5" y2="56.9"/>
		<line class="st3" x1="13.3" y1="62.1" x2="43.5" y2="68.9"/>
	</g>
	<path class="st6" d="M18,10.7c-4.1,0.8-6.7,6.5-4.6,9.7"/>
</g>
</svg>
