<?xml version="1.0" encoding="utf-8"?>
<!-- Generator: Adobe Illustrator 22.0.1, SVG Export Plug-In . SVG Version: 6.00 Build 0)  -->
<svg version="1.1" id="Layer_1" xmlns="http://www.w3.org/2000/svg" xmlns:xlink="http://www.w3.org/1999/xlink" x="0px" y="0px"
	 viewBox="0 0 95.8 88.7" style="enable-background:new 0 0 95.8 88.7;" xml:space="preserve">
<style type="text/css">
	.st0{fill:#E8E9EA;stroke:#295182;stroke-width:4.5;stroke-linecap:round;stroke-linejoin:round;stroke-miterlimit:10;}
	.st1{fill:none;stroke:#295182;stroke-width:4.5;stroke-linecap:round;stroke-linejoin:round;stroke-miterlimit:10;}
</style>
<g id="XMLID_152_">
	<path id="XMLID_171_" class="st0" d="M38.6,10.8c2.6,0.1,4.8,2,5.5,4.5l3.2,11.2c0.7,2.6,0.8,4.7,0.8,6.4c0,2.6-2.2,4.7-4.8,4.7
		h-9.9c-2.6,0-4.8-2.1-4.8-4.7c0-1.7,0.2-3.9,0.8-6.4L32.5,15c0.7-2.4,2.8-4.2,5.4-4.3l0,0C38.1,10.7,38.3,10.7,38.6,10.8z"/>
	<path id="XMLID_170_" class="st0" d="M30.8,20.9c-1.6-3.8-8.1-8.6-9.6-8.4c-1.4,0.2-2.5,1.3-3,2.6c-0.9,2.5-2.6,7.9-3.1,10.9
		c-0.5,3.1-0.2,6.9-0.1,8.5c0.1,0.8,0.4,1.5,1,2c1,0.8,12.2,0.8,12.2,0.8"/>
	<path id="XMLID_162_" class="st0" d="M65.2,20.5c3.8-6,8-8.2,9.4-8c1.4,0.2,2.5,1.3,3,2.6c0.9,2.5,2.6,7.9,3.1,10.9
		c0.5,3.1,0.2,6.9,0.1,8.5c-0.1,0.8-0.4,1.5-1,2c-1,0.8-12,0.8-12,0.8"/>
	<path id="XMLID_160_" class="st0" d="M57.5,10.8c-2.6,0.1-4.8,2-5.5,4.5l-3.2,11.2c-0.7,2.6-0.8,4.7-0.8,6.4c0,2.6,2.2,4.7,4.8,4.7
		h9.9c2.6,0,4.8-2.1,4.8-4.7c0-1.7-0.2-3.9-0.8-6.4L63.6,15c-0.7-2.4-2.8-4.2-5.4-4.3l0,0C58,10.7,57.7,10.7,57.5,10.8z"/>
	<path id="XMLID_159_" class="st0" d="M2.3,16.8l0-0.5C1.7,10.6,5.9,5.4,11.6,4.7c11.3-1.5,24-2.4,38-2.4c12.4,0,23.8,0.9,34,2.2
		c5.5,0.7,9.4,5.4,9.4,10.7v0"/>
	<path id="XMLID_157_" class="st0" d="M33,2.7"/>
	<path id="XMLID_167_" class="st0" d="M16.5,20.6c-1.8-2.2-9-7.4-11.8-7.4c0,0-2.6,0.7-2.5,5l0.6,12.5C3,32.6,3.7,34.5,5,35.9
		C5,36,5.1,36,5.2,36.1C6.4,37.1,18,36.8,18,36.8"/>
	<path id="XMLID_161_" class="st0" d="M79.4,20.8c1.8-2.2,8.9-7.7,11.7-7.6c0,0,2.6,0.7,2.5,5l-0.6,12.5c-0.1,1.9-0.8,3.8-2.1,5.2
		c-0.1,0.1-0.2,0.2-0.3,0.2c-1.1,0.9-12.3,0.7-12.3,0.7"/>
</g>
<g id="XMLID_122_">
	<path id="XMLID_130_" class="st0" d="M38.6,77.9c2.6-0.1,4.8-2,5.5-4.5l3.2-11.2c0.7-2.6,0.8-4.7,0.8-6.4c0-2.6-2.2-4.7-4.8-4.7
		h-9.9c-2.6,0-4.8,2.1-4.8,4.7c0,1.7,0.2,3.9,0.8,6.4l3.2,11.5c0.7,2.4,2.8,4.2,5.4,4.3l0,0C38.1,77.9,38.3,77.9,38.6,77.9z"/>
	<path id="XMLID_129_" class="st0" d="M30.8,67.8c-1.6,3.8-8.1,8.6-9.6,8.4c-1.4-0.2-2.5-1.3-3-2.6c-0.9-2.5-2.6-7.9-3.1-10.9
		c-0.5-3.1-0.2-6.9-0.1-8.5c0.1-0.8,0.4-1.5,1-2c1-0.8,12.2-0.8,12.2-0.8"/>
	<path id="XMLID_127_" class="st0" d="M65.2,68.2c3.8,6,8,8.2,9.4,8c1.4-0.2,2.5-1.3,3-2.6c0.9-2.5,2.6-7.9,3.1-10.9
		c0.5-3.1,0.2-6.9,0.1-8.5c-0.1-0.8-0.4-1.5-1-2c-1-0.8-12-0.8-12-0.8"/>
	<path id="XMLID_125_" class="st0" d="M57.5,77.9c-2.6-0.1-4.8-2-5.5-4.5l-3.2-11.2c-0.7-2.6-0.8-4.7-0.8-6.4c0-2.6,2.2-4.7,4.8-4.7
		h9.9c2.6,0,4.8,2.1,4.8,4.7c0,1.7-0.2,3.9-0.8,6.4l-3.2,11.5c-0.7,2.4-2.8,4.2-5.4,4.3l0,0C58,77.9,57.7,77.9,57.5,77.9z"/>
	<path id="XMLID_124_" class="st0" d="M2.3,71.9l0,0.5C1.7,78.1,5.9,83.3,11.6,84c11.3,1.5,24,2.4,38,2.4c12.4,0,23.8-0.9,34-2.2
		c5.5-0.7,9.4-5.4,9.4-10.7v0"/>
	<path id="XMLID_123_" class="st0" d="M33,86"/>
	<path id="XMLID_128_" class="st0" d="M16.5,68.1c-1.8,2.2-9,7.4-11.8,7.4c0,0-2.6-0.7-2.5-5L2.9,58C3,56.1,3.7,54.2,5,52.8
		c0.1-0.1,0.2-0.2,0.3-0.2C6.4,51.6,18,51.8,18,51.8"/>
	<path id="XMLID_126_" class="st0" d="M79.4,67.9c1.8,2.2,8.9,7.7,11.7,7.6c0,0,2.6-0.7,2.5-5L92.9,58c-0.1-1.9-0.8-3.8-2.1-5.2
		c-0.1-0.1-0.2-0.2-0.3-0.2c-1.1-0.9-12.3-0.7-12.3-0.7"/>
</g>
<g id="XMLID_21_">
	<path id="XMLID_29_" class="st1" d="M38.6,10.8c2.6,0.1,4.8,2,5.5,4.5l3.2,11.2c0.7,2.6,0.8,4.7,0.8,6.4c0,2.6-2.2,4.7-4.8,4.7
		h-9.9c-2.6,0-4.8-2.1-4.8-4.7c0-1.7,0.2-3.9,0.8-6.4L32.5,15c0.7-2.4,2.8-4.2,5.4-4.3l0,0C38.1,10.7,38.3,10.7,38.6,10.8z"/>
	<path id="XMLID_28_" class="st1" d="M30.8,20.9c-1.6-3.8-8.1-8.6-9.6-8.4c-1.4,0.2-2.5,1.3-3,2.6c-0.9,2.5-2.6,7.9-3.1,10.9
		c-0.5,3.1-0.2,6.9-0.1,8.5c0.1,0.8,0.4,1.5,1,2c1,0.8,12.2,0.8,12.2,0.8"/>
	<path id="XMLID_27_" class="st1" d="M65.2,20.5c3.8-6,8-8.2,9.4-8c1.4,0.2,2.5,1.3,3,2.6c0.9,2.5,2.6,7.9,3.1,10.9
		c0.5,3.1,0.2,6.9,0.1,8.5c-0.1,0.8-0.4,1.5-1,2c-1,0.8-12,0.8-12,0.8"/>
	<path id="XMLID_26_" class="st1" d="M57.5,10.8c-2.6,0.1-4.8,2-5.5,4.5l-3.2,11.2c-0.7,2.6-0.8,4.7-0.8,6.4c0,2.6,2.2,4.7,4.8,4.7
		h9.9c2.6,0,4.8-2.1,4.8-4.7c0-1.7-0.2-3.9-0.8-6.4L63.6,15c-0.7-2.4-2.8-4.2-5.4-4.3l0,0C58,10.7,57.7,10.7,57.5,10.8z"/>
	<path id="XMLID_25_" class="st1" d="M2.3,16.8l0-0.5C1.7,10.6,5.9,5.4,11.6,4.7c11.3-1.5,24-2.4,38-2.4c12.4,0,23.8,0.9,34,2.2
		c5.5,0.7,9.4,5.4,9.4,10.7v0"/>
	<path id="XMLID_24_" class="st1" d="M33,2.7"/>
	<path id="XMLID_23_" class="st1" d="M16.5,20.6c-1.8-2.2-9-7.4-11.8-7.4c0,0-2.6,0.7-2.5,5l0.6,12.5C3,32.6,3.7,34.5,5,35.9
		C5,36,5.1,36,5.2,36.1C6.4,37.1,18,36.8,18,36.8"/>
	<path id="XMLID_22_" class="st1" d="M79.4,20.8c1.8-2.2,8.9-7.7,11.7-7.6c0,0,2.6,0.7,2.5,5l-0.6,12.5c-0.1,1.9-0.8,3.8-2.1,5.2
		c-0.1,0.1-0.2,0.2-0.3,0.2c-1.1,0.9-12.3,0.7-12.3,0.7"/>
</g>
<g id="XMLID_12_">
	<path id="XMLID_20_" class="st1" d="M38.6,77.9c2.6-0.1,4.8-2,5.5-4.5l3.2-11.2c0.7-2.6,0.8-4.7,0.8-6.4c0-2.6-2.2-4.7-4.8-4.7
		h-9.9c-2.6,0-4.8,2.1-4.8,4.7c0,1.7,0.2,3.9,0.8,6.4l3.2,11.5c0.7,2.4,2.8,4.2,5.4,4.3l0,0C38.1,77.9,38.3,77.9,38.6,77.9z"/>
	<path id="XMLID_19_" class="st1" d="M30.8,67.8c-1.6,3.8-8.1,8.6-9.6,8.4c-1.4-0.2-2.5-1.3-3-2.6c-0.9-2.5-2.6-7.9-3.1-10.9
		c-0.5-3.1-0.2-6.9-0.1-8.5c0.1-0.8,0.4-1.5,1-2c1-0.8,12.2-0.8,12.2-0.8"/>
	<path id="XMLID_18_" class="st1" d="M65.2,68.2c3.8,6,8,8.2,9.4,8c1.4-0.2,2.5-1.3,3-2.6c0.9-2.5,2.6-7.9,3.1-10.9
		c0.5-3.1,0.2-6.9,0.1-8.5c-0.1-0.8-0.4-1.5-1-2c-1-0.8-12-0.8-12-0.8"/>
	<path id="XMLID_17_" class="st1" d="M57.5,77.9c-2.6-0.1-4.8-2-5.5-4.5l-3.2-11.2c-0.7-2.6-0.8-4.7-0.8-6.4c0-2.6,2.2-4.7,4.8-4.7
		h9.9c2.6,0,4.8,2.1,4.8,4.7c0,1.7-0.2,3.9-0.8,6.4l-3.2,11.5c-0.7,2.4-2.8,4.2-5.4,4.3l0,0C58,77.9,57.7,77.9,57.5,77.9z"/>
	<path id="XMLID_16_" class="st1" d="M2.3,71.9l0,0.5C1.7,78.1,5.9,83.3,11.6,84c11.3,1.5,24,2.4,38,2.4c12.4,0,23.8-0.9,34-2.2
		c5.5-0.7,9.4-5.4,9.4-10.7v0"/>
	<path id="XMLID_15_" class="st1" d="M33,86"/>
	<path id="XMLID_14_" class="st1" d="M16.5,68.1c-1.8,2.2-9,7.4-11.8,7.4c0,0-2.6-0.7-2.5-5L2.9,58C3,56.1,3.7,54.2,5,52.8
		c0.1-0.1,0.2-0.2,0.3-0.2C6.4,51.6,18,51.8,18,51.8"/>
	<path id="XMLID_13_" class="st1" d="M79.4,67.9c1.8,2.2,8.9,7.7,11.7,7.6c0,0,2.6-0.7,2.5-5L92.9,58c-0.1-1.9-0.8-3.8-2.1-5.2
		c-0.1-0.1-0.2-0.2-0.3-0.2c-1.1-0.9-12.3-0.7-12.3-0.7"/>
</g>
</svg>
