<?xml version="1.0" encoding="utf-8"?>
<!-- Generator: Adobe Illustrator 22.0.1, SVG Export Plug-In . SVG Version: 6.00 Build 0)  -->
<svg version="1.1" id="Layer_1" xmlns="http://www.w3.org/2000/svg" xmlns:xlink="http://www.w3.org/1999/xlink" x="0px" y="0px"
	 viewBox="0 0 100.5 94.9" style="enable-background:new 0 0 100.5 94.9;" xml:space="preserve">
<style type="text/css">
	.st0{fill:#A8D2EF;stroke:#295182;stroke-width:4.5;stroke-linecap:round;stroke-linejoin:round;stroke-miterlimit:10;}
	.st1{fill:#E8E9EA;stroke:#295182;stroke-width:4.5;stroke-linecap:round;stroke-linejoin:round;stroke-miterlimit:10;}
	.st2{fill:none;stroke:#295182;stroke-width:4.5;stroke-linecap:round;stroke-linejoin:round;stroke-miterlimit:10;}
</style>
<path id="XMLID_474_" class="st0" d="M38.9,24.7v8.6c0,0.5-0.2,1-0.6,1.4l-2.5,2.4c-0.7,0.7-1.9,0.7-2.6,0l-2.5-2.4
	c-0.4-0.4-0.6-0.8-0.6-1.4v-8.6"/>
<path id="XMLID_473_" class="st0" d="M70.8,24.7v8.6c0,0.5-0.2,1-0.6,1.4l-2.5,2.4c-0.7,0.7-1.9,0.7-2.6,0l-2.5-2.4
	c-0.4-0.4-0.6-0.8-0.6-1.4v-8.6"/>
<g id="XMLID_476_">
	<path id="XMLID_481_" class="st1" d="M2.4,70.7l0-0.5c-0.6-6,3.7-11.5,9.8-12.2c11.8-1.5,25.2-2.6,39.9-2.5c13,0,25,0.9,35.8,2.3
		c5.8,0.7,9.9,5.7,9.9,11.3v0"/>
	<path id="XMLID_480_" class="st1" d="M34.6,55.9"/>
	<polyline id="XMLID_479_" class="st1" points="28.8,56 28.8,48.7 40.4,48.7 40.4,55.5 	"/>
	<polyline id="XMLID_477_" class="st1" points="60.7,55.6 60.7,48.7 72.3,48.7 72.3,55.5 	"/>
	<path id="XMLID_487_" class="st1" d="M40.4,64.3c2.7,0.1,5,2.1,5.7,4.8l3.3,11.8c0.7,2.7,0.9,5,0.9,6.8c0,2.8-2.3,5-5.1,5H34.8
		c-2.8,0-5-2.2-5.1-5c0-1.8,0.2-4.1,0.9-6.8l3.4-12c0.7-2.6,3-4.4,5.6-4.5l0,0C39.9,64.3,40.2,64.3,40.4,64.3z"/>
	<path id="XMLID_486_" class="st1" d="M32.3,75c-1.7-4-8.5-9.1-10-8.9c-1.5,0.2-2.6,1.3-3.1,2.7c-0.9,2.7-2.8,8.3-3.2,11.5
		c-0.5,3.3-0.2,7.2-0.1,8.9c0.1,0.8,0.4,1.6,1.1,2.1c1.1,0.8,12.9,0.8,12.9,0.8"/>
	<path id="XMLID_485_" class="st1" d="M17.2,74.6c-1.9-2.3-9.5-7.8-12.4-7.7c0,0-2.7,0.8-2.6,5.3l0.7,13.1c0.1,2,0.8,4,2.2,5.4
		c0.1,0.1,0.2,0.2,0.3,0.3c1.2,1,13.4,0.7,13.4,0.7"/>
	<path id="XMLID_484_" class="st1" d="M68.3,74.6c4-6.3,8.4-8.7,9.9-8.5c1.5,0.2,2.6,1.3,3.1,2.7c0.9,2.7,2.8,8.3,3.2,11.5
		c0.5,3.3,0.2,7.2,0.1,8.9c-0.1,0.8-0.4,1.6-1.1,2.1C82.5,92.1,71,92.2,71,92.2"/>
	<path id="XMLID_483_" class="st1" d="M83.3,74.9c1.9-2.3,9.4-8.1,12.3-8c0,0,2.7,0.8,2.6,5.3l-0.7,13.1c-0.1,2-0.8,4-2.2,5.4
		c-0.1,0.1-0.2,0.2-0.3,0.3c-1.2,1-13,0.8-13,0.8"/>
	<path id="XMLID_482_" class="st1" d="M60.3,64.3c-2.7,0.1-5,2.1-5.7,4.8l-3.3,11.8c-0.7,2.7-0.9,5-0.9,6.8c0,2.8,2.3,5,5.1,5h10.5
		c2.8,0,5-2.2,5.1-5c0-1.8-0.2-4.1-0.9-6.8l-3.4-12c-0.7-2.6-3-4.4-5.6-4.5l0,0C60.8,64.3,60.5,64.3,60.3,64.3z"/>
</g>
<g id="XMLID_1_">
	<path id="XMLID_11_" class="st2" d="M2.4,70.7l0-0.5c-0.6-6,3.7-11.5,9.8-12.2c11.8-1.5,25.2-2.6,39.9-2.5c13,0,25,0.9,35.8,2.3
		c5.8,0.7,9.9,5.7,9.9,11.3v0"/>
	<path id="XMLID_10_" class="st2" d="M34.6,55.9"/>
	<polyline id="XMLID_9_" class="st2" points="28.8,56 28.8,48.7 40.4,48.7 40.4,55.5 	"/>
	<polyline id="XMLID_8_" class="st2" points="60.7,55.6 60.7,48.7 72.3,48.7 72.3,55.5 	"/>
	<path id="XMLID_7_" class="st2" d="M40.4,64.3c2.7,0.1,5,2.1,5.7,4.8l3.3,11.8c0.7,2.7,0.9,5,0.9,6.8c0,2.8-2.3,5-5.1,5H34.8
		c-2.8,0-5-2.2-5.1-5c0-1.8,0.2-4.1,0.9-6.8l3.4-12c0.7-2.6,3-4.4,5.6-4.5l0,0C39.9,64.3,40.2,64.3,40.4,64.3z"/>
	<path id="XMLID_6_" class="st2" d="M32.3,75c-1.7-4-8.5-9.1-10-8.9c-1.5,0.2-2.6,1.3-3.1,2.7c-0.9,2.7-2.8,8.3-3.2,11.5
		c-0.5,3.3-0.2,7.2-0.1,8.9c0.1,0.8,0.4,1.6,1.1,2.1c1.1,0.8,12.9,0.8,12.9,0.8"/>
	<path id="XMLID_5_" class="st2" d="M17.2,74.6c-1.9-2.3-9.5-7.8-12.4-7.7c0,0-2.7,0.8-2.6,5.3l0.7,13.1c0.1,2,0.8,4,2.2,5.4
		c0.1,0.1,0.2,0.2,0.3,0.3c1.2,1,13.4,0.7,13.4,0.7"/>
	<path id="XMLID_4_" class="st2" d="M68.3,74.6c4-6.3,8.4-8.7,9.9-8.5c1.5,0.2,2.6,1.3,3.1,2.7c0.9,2.7,2.8,8.3,3.2,11.5
		c0.5,3.3,0.2,7.2,0.1,8.9c-0.1,0.8-0.4,1.6-1.1,2.1C82.5,92.1,71,92.2,71,92.2"/>
	<path id="XMLID_3_" class="st2" d="M83.3,74.9c1.9-2.3,9.4-8.1,12.3-8c0,0,2.7,0.8,2.6,5.3l-0.7,13.1c-0.1,2-0.8,4-2.2,5.4
		c-0.1,0.1-0.2,0.2-0.3,0.3c-1.2,1-13,0.8-13,0.8"/>
	<path id="XMLID_2_" class="st2" d="M60.3,64.3c-2.7,0.1-5,2.1-5.7,4.8l-3.3,11.8c-0.7,2.7-0.9,5-0.9,6.8c0,2.8,2.3,5,5.1,5h10.5
		c2.8,0,5-2.2,5.1-5c0-1.8-0.2-4.1-0.9-6.8l-3.4-12c-0.7-2.6-3-4.4-5.6-4.5l0,0C60.8,64.3,60.5,64.3,60.3,64.3z"/>
</g>
<path id="XMLID_475_" class="st0" d="M2.3,2.3v16.9v0c0,5.5,5.1,9.6,10.5,8.4c10-2.2,22.2-4,36.2-4.1c14.8-0.1,27.8,1.7,38.3,4.1
	c5.4,1.2,10.5-2.9,10.5-8.4v0V2.4"/>
</svg>
