<?xml version="1.0" encoding="UTF-8" ?>
<!DOCTYPE svg PUBLIC "-//W3C//DTD SVG 1.1//EN" "http://www.w3.org/Graphics/SVG/1.1/DTD/svg11.dtd">
<svg width="414pt" height="465pt" viewBox="0 0 414 465" version="1.1" xmlns="http://www.w3.org/2000/svg">
<g id="#ffffffff">
<path fill="#ffffff" opacity="1.00" d=" M 199.58 3.79 C 207.63 1.67 216.51 2.90 223.62 7.25 C 276.89 37.98 330.15 68.75 383.41 99.49 C 392.08 103.52 398.69 111.52 400.67 120.91 C 401.74 125.20 401.66 129.64 401.63 134.03 C 401.51 191.35 401.37 248.68 401.28 306.01 C 401.23 313.57 401.79 321.52 398.52 328.57 C 396.54 332.43 394.48 336.37 391.30 339.39 C 387.52 343.12 382.64 345.36 378.16 348.08 C 327.29 377.60 276.43 407.12 225.57 436.64 C 215.79 443.01 202.38 445.01 192.01 438.86 C 140.45 409.15 88.93 379.37 37.40 349.62 C 31.48 345.98 24.73 343.21 20.24 337.69 C 15.35 331.98 12.62 324.49 12.66 316.97 C 12.82 254.65 12.88 192.33 13.12 130.01 C 12.76 118.25 19.72 106.83 29.81 100.98 C 83.38 69.84 136.99 38.78 190.57 7.66 C 193.38 5.98 196.40 4.61 199.58 3.79 Z" />
</g>
</svg>
