<?xml version="1.0" encoding="UTF-8" ?>
<!DOCTYPE svg PUBLIC "-//W3C//DTD SVG 1.1//EN" "http://www.w3.org/Graphics/SVG/1.1/DTD/svg11.dtd">
<svg width="569pt" height="635pt" viewBox="0 0 569 635" version="1.1" xmlns="http://www.w3.org/2000/svg">
<g id="#ffffffff">
<path fill="#ffffff" opacity="1.00" d=" M 262.51 7.62 C 276.36 -0.34 294.12 0.47 307.81 8.37 C 382.36 51.06 456.87 93.82 531.41 136.54 C 538.78 140.38 545.42 145.84 549.89 152.92 C 554.79 160.67 557.05 169.88 557.02 179.00 C 557.02 265.35 557.01 351.69 557.02 438.03 C 557.00 440.85 556.65 443.65 556.27 446.44 C 553.70 459.49 544.89 470.75 533.42 477.28 C 459.48 519.71 385.51 562.07 311.57 604.49 C 305.68 608.04 299.32 610.97 292.53 612.22 C 282.10 614.28 271.01 612.31 261.83 606.99 C 189.39 565.47 116.96 523.93 44.53 482.41 C 38.31 478.78 31.74 475.54 26.46 470.55 C 19.23 464.05 14.36 455.11 12.59 445.57 C 11.72 439.75 12.02 433.86 11.98 428.00 C 11.98 345.00 11.98 262.00 11.98 179.00 C 11.94 170.05 14.14 161.04 18.83 153.38 C 22.83 146.99 28.48 141.68 35.05 138.01 C 110.88 94.55 186.68 51.05 262.51 7.62 Z" />
</g>
<g id="#02020214">
<path fill="#020202" opacity="0.08" d=" M 12.44 159.47 C 14.03 156.99 15.56 153.80 18.83 153.38 C 14.14 161.04 11.94 170.05 11.98 179.00 C 11.98 262.00 11.98 345.00 11.98 428.00 C 12.02 433.86 11.72 439.75 12.59 445.57 C 11.53 456.41 15.71 467.22 22.31 475.69 C 28.63 483.30 37.36 488.27 45.81 493.16 C 112.60 531.33 179.27 569.71 246.04 607.90 C 255.30 612.92 264.06 619.39 274.59 621.48 C 286.98 624.75 299.92 620.92 310.78 614.83 C 378.27 576.35 445.57 537.55 513.02 499.00 C 521.19 494.23 529.59 489.80 537.39 484.42 C 547.46 477.36 554.25 466.11 556.32 454.03 C 556.67 451.51 556.33 448.96 556.27 446.44 C 556.65 443.65 557.00 440.85 557.02 438.03 C 557.01 351.69 557.02 265.35 557.02 179.00 C 557.05 169.88 554.79 160.67 549.89 152.92 C 551.71 153.63 553.48 154.63 554.53 156.36 C 559.19 163.15 562.59 170.97 563.53 179.20 C 564.08 183.80 564.67 188.41 564.69 193.05 C 564.68 269.37 564.69 345.68 564.68 422.00 C 564.52 433.00 565.22 444.05 563.68 454.99 C 562.20 471.53 550.86 485.60 537.00 493.96 C 525.16 501.22 512.96 507.85 500.93 514.79 C 464.46 535.67 428.05 556.66 391.53 577.46 C 366.27 592.30 340.64 606.51 315.31 621.22 C 307.19 625.55 298.51 630.01 289.06 629.77 C 282.82 629.74 276.45 630.15 270.36 628.46 C 262.60 626.41 255.64 622.25 248.71 618.34 C 181.02 579.69 113.53 540.71 45.82 502.10 C 36.34 496.57 26.24 491.51 18.77 483.25 C 10.35 474.77 5.16 462.97 5.10 450.98 C 4.32 444.34 4.16 437.66 4.32 430.99 C 4.31 352.66 4.34 274.34 4.31 196.01 C 4.43 190.06 5.35 184.15 5.49 178.19 C 6.37 171.54 9.17 165.27 12.44 159.47 Z" />
</g>
<g id="#07060739">
<path fill="#070607" opacity="0.22" d=" M 12.59 445.57 C 14.36 455.11 19.23 464.05 26.46 470.55 C 31.74 475.54 38.31 478.78 44.53 482.41 C 116.96 523.93 189.39 565.47 261.83 606.99 C 271.01 612.31 282.10 614.28 292.53 612.22 C 299.32 610.97 305.68 608.04 311.57 604.49 C 385.51 562.07 459.48 519.71 533.42 477.28 C 544.89 470.75 553.70 459.49 556.27 446.44 C 556.33 448.96 556.67 451.51 556.32 454.03 C 554.25 466.11 547.46 477.36 537.39 484.42 C 529.59 489.80 521.19 494.23 513.02 499.00 C 445.57 537.55 378.27 576.35 310.78 614.83 C 299.92 620.92 286.98 624.75 274.59 621.48 C 264.06 619.39 255.30 612.92 246.04 607.90 C 179.27 569.71 112.60 531.33 45.81 493.16 C 37.36 488.27 28.63 483.30 22.31 475.69 C 15.71 467.22 11.53 456.41 12.59 445.57 Z" />
</g>
</svg>
