<?xml version="1.0" encoding="UTF-8" ?>
<!DOCTYPE svg PUBLIC "-//W3C//DTD SVG 1.1//EN" "http://www.w3.org/Graphics/SVG/1.1/DTD/svg11.dtd">
<svg width="54pt" height="59pt" viewBox="0 0 54 59" version="1.1" xmlns="http://www.w3.org/2000/svg">
<g id="#bdd750ff">
<path fill="#bdd750" opacity="1.00" d=" M 25.97 0.00 L 28.03 0.00 C 35.04 3.52 41.74 7.62 48.64 11.34 C 50.68 12.54 53.26 13.46 54.00 15.95 L 54.00 42.98 C 53.16 45.73 50.20 46.63 47.99 47.99 C 41.25 51.60 34.74 55.67 27.85 59.00 L 26.24 59.00 C 19.28 55.74 12.78 51.57 6.00 47.98 C 3.79 46.62 0.83 45.72 0.00 42.98 L 0.00 15.94 C 0.74 13.47 3.31 12.54 5.33 11.36 C 12.25 7.63 18.96 3.52 25.97 0.00 Z" />
</g>
</svg>
