<?xml version="1.0" encoding="UTF-8" ?>
<!DOCTYPE svg PUBLIC "-//W3C//DTD SVG 1.1//EN" "http://www.w3.org/Graphics/SVG/1.1/DTD/svg11.dtd">
<svg width="545pt" height="611pt" viewBox="0 0 545 611" version="1.1" xmlns="http://www.w3.org/2000/svg">
<g id="#ffffffff">
<path fill="#ffffff" opacity="1.00" d=" M 269.88 0.00 L 273.67 0.00 C 281.56 0.62 289.31 2.83 296.20 6.77 C 371.61 49.99 447.01 93.22 522.41 136.46 C 532.44 142.15 540.10 151.91 543.04 163.08 C 544.17 166.86 544.40 170.82 545.00 174.71 L 545.00 437.73 C 544.39 442.30 543.83 446.92 542.11 451.25 C 538.33 461.70 530.19 470.13 520.63 475.56 C 445.80 518.45 370.99 561.36 296.16 604.25 C 289.29 608.18 281.55 610.38 273.68 611.00 L 270.09 611.00 C 263.10 610.21 256.12 608.55 250.03 604.92 C 175.24 562.05 100.46 519.16 25.66 476.30 C 18.79 472.52 12.54 467.44 8.00 460.99 C 3.09 454.18 0.73 445.91 0.00 437.62 L 0.00 174.89 C 0.60 170.68 0.85 166.40 2.18 162.33 C 5.25 151.49 12.77 142.07 22.55 136.50 C 98.37 93.02 174.19 49.55 250.02 6.08 C 256.06 2.48 262.97 0.83 269.88 0.00 Z" />
</g>
</svg>
