<?xml version="1.0" encoding="UTF-8" ?>
<!DOCTYPE svg PUBLIC "-//W3C//DTD SVG 1.1//EN" "http://www.w3.org/Graphics/SVG/1.1/DTD/svg11.dtd">
<svg width="183pt" height="204pt" viewBox="0 0 183 204" version="1.1" xmlns="http://www.w3.org/2000/svg">
<g id="#11557aff">
<path fill="#11557a" opacity="1.00" d=" M 89.61 0.00 L 92.68 0.00 C 97.16 0.51 101.02 2.99 104.82 5.22 C 128.35 18.65 151.90 32.02 175.41 45.48 C 179.67 47.77 182.26 52.22 183.00 56.90 L 183.00 146.78 C 182.54 151.89 179.34 156.43 174.86 158.85 C 150.03 173.03 125.15 187.16 100.33 201.36 C 97.97 202.68 95.40 203.63 92.72 204.00 L 89.79 204.00 C 85.77 203.39 82.29 201.18 78.85 199.17 C 55.29 185.71 31.70 172.30 8.14 158.84 C 3.80 156.52 0.75 152.21 0.00 147.34 L 0.00 57.16 C 0.62 52.38 3.25 47.86 7.54 45.52 C 31.27 31.93 55.05 18.43 78.80 4.87 C 82.20 2.86 85.65 0.70 89.61 0.00 Z" />
</g>
</svg>
