<?xml version="1.0" encoding="utf-8"?>
<!-- Generator: Adobe Illustrator 22.0.1, SVG Export Plug-In . SVG Version: 6.00 Build 0)  -->
<svg version="1.1" id="Layer_1" xmlns="http://www.w3.org/2000/svg" xmlns:xlink="http://www.w3.org/1999/xlink" x="0px" y="0px"
	 viewBox="0 0 258.7 97.3" style="enable-background:new 0 0 258.7 97.3;" xml:space="preserve">
<style type="text/css">
	.st0{fill:#FFFFFF;}
	.st1{fill:#799928;}
	.st2{fill-rule:evenodd;clip-rule:evenodd;fill:#799928;}
	.st3{fill-rule:evenodd;clip-rule:evenodd;fill:#FFFFFF;}
	.st4{fill-rule:evenodd;clip-rule:evenodd;fill:#231F20;}
</style>
<path class="st0" d="M97.2,27.6h8.3c5.4,0,9,0.2,10.9,0.7c1.9,0.5,3.3,1.3,4.3,2.4c1,1.1,1.6,2.4,1.8,3.8c0.2,1.4,0.4,4.1,0.4,8.2
	v15c0,3.8-0.2,6.4-0.5,7.7c-0.4,1.3-1,2.3-1.9,3c-0.9,0.7-2,1.2-3.3,1.5c-1.3,0.3-3.3,0.4-6,0.4h-14V27.6L97.2,27.6z M108.3,34.9
	v28.2c1.6,0,2.6-0.3,2.9-1c0.4-0.6,0.5-2.4,0.5-5.3V40.2c0-1.9-0.1-3.2-0.2-3.7c-0.1-0.6-0.4-0.9-0.8-1.2
	C110.3,35,109.5,34.9,108.3,34.9L108.3,34.9z M138.6,27.6v42.8h-11.1V27.6H138.6L138.6,27.6z M169,43.4h-11.1v-3.9
	c0-2.5-0.1-4-0.3-4.6c-0.2-0.6-0.7-0.9-1.5-0.9c-0.7,0-1.1,0.3-1.4,0.8c-0.2,0.5-0.4,1.9-0.4,4.1v20.5c0,1.9,0.1,3.2,0.4,3.8
	c0.2,0.6,0.7,0.9,1.4,0.9c0.8,0,1.3-0.3,1.6-1c0.3-0.7,0.4-2,0.4-4v-5.1H156v-6.5h13v22.9h-7l-1-3.1c-0.8,1.3-1.7,2.3-2.9,3
	c-1.2,0.7-2.5,1-4.1,1c-1.9,0-3.6-0.5-5.2-1.4c-1.6-0.9-2.9-2-3.7-3.4c-0.8-1.3-1.4-2.7-1.6-4.2c-0.2-1.5-0.3-3.7-0.3-6.6V43
	c0-4.1,0.2-7.1,0.7-8.9c0.4-1.9,1.7-3.6,3.8-5.1c2.1-1.5,4.8-2.3,8.1-2.3c3.3,0,6,0.7,8.1,2c2.1,1.3,3.6,2.9,4.2,4.8
	c0.6,1.8,1,4.5,1,8V43.4L169,43.4z M184.9,27.6v42.8h-11.1V27.6H184.9L184.9,27.6z M212.1,27.6v8.5h-6.5v34.2h-11.1V36.1h-6.6v-8.5
	H212.1L212.1,27.6z M232.1,27.6l6.4,42.8h-11.4l-0.6-7.7h-4l-0.6,7.7h-11.5l5.6-42.8H232.1L232.1,27.6z M226.2,55.1
	c-0.5-4.8-1.1-10.9-1.7-18c-1.1,8.2-1.8,14.2-2.1,18H226.2L226.2,55.1z M251.9,27.6v34.2h6.7v8.5h-17.9V27.6H251.9L251.9,27.6z"/>
<path class="st1" d="M159.7,87.1c0-0.4,0-0.8,0-1.2c0-0.2-0.1-0.2-0.2-0.3c-0.3-0.2-0.6-0.3-0.9-0.5c-0.2-0.1-0.3-0.1-0.4,0
	c-0.3,0.2-0.7,0.4-1,0.5c-0.1,0.1-0.2,0.1-0.2,0.2c0,0.4,0,0.9,0,1.3c0,0.1,0,0.2,0.1,0.2c0.4,0.2,0.7,0.4,1.1,0.7
	c0.1,0.1,0.2,0.1,0.2,0c0.4-0.2,0.7-0.4,1.1-0.7C159.6,87.3,159.7,87.2,159.7,87.1L159.7,87.1z M186.9,91.4l0.3,1.7
	c-0.5,0.1-1,0.2-1.4,0.2c-0.7,0-1.2-0.1-1.6-0.3c-0.4-0.2-0.7-0.5-0.8-0.9c-0.2-0.4-0.2-1.1-0.2-2.3v-6.5h-1.4v-1.5h1.4V79l1.9-1.2
	v4h1.9v1.5H185v6.6c0,0.5,0,0.9,0.1,1.1c0.1,0.2,0.2,0.3,0.3,0.4c0.2,0.1,0.4,0.1,0.7,0.1C186.3,91.5,186.6,91.5,186.9,91.4
	L186.9,91.4z M175.5,93.1V81.8h1.7v1.7c0.4-0.8,0.8-1.3,1.2-1.6c0.4-0.3,0.8-0.4,1.2-0.4c0.6,0,1.3,0.2,2,0.6l-0.7,1.8
	c-0.5-0.3-0.9-0.4-1.4-0.4c-0.4,0-0.8,0.1-1.1,0.4c-0.3,0.3-0.6,0.6-0.7,1c-0.2,0.7-0.3,1.4-0.3,2.2v5.9H175.5L175.5,93.1z
	 M170.6,87.5c-0.7,0.3-1.7,0.5-3.1,0.7c-0.8,0.1-1.4,0.2-1.7,0.4c-0.3,0.1-0.6,0.3-0.8,0.6c-0.2,0.3-0.3,0.6-0.3,0.9
	c0,0.5,0.2,0.9,0.6,1.3c0.4,0.3,1,0.5,1.7,0.5c0.7,0,1.4-0.2,2-0.5c0.6-0.3,1-0.8,1.3-1.3c0.2-0.4,0.3-1.1,0.3-1.9L170.6,87.5
	L170.6,87.5z M170.8,91.7c-0.7,0.6-1.4,1-2.1,1.3c-0.7,0.3-1.4,0.4-2.1,0.4c-1.2,0-2.2-0.3-2.9-0.9c-0.7-0.6-1-1.4-1-2.3
	c0-0.6,0.1-1.1,0.4-1.5c0.3-0.5,0.6-0.8,1-1.1c0.4-0.3,0.9-0.5,1.4-0.6c0.4-0.1,0.9-0.2,1.7-0.3c1.5-0.2,2.7-0.4,3.4-0.7
	c0-0.3,0-0.4,0-0.5c0-0.8-0.2-1.3-0.5-1.6c-0.5-0.4-1.2-0.6-2.2-0.6c-0.9,0-1.6,0.2-2,0.5c-0.4,0.3-0.7,0.9-1,1.7l-1.9-0.3
	c0.2-0.8,0.5-1.5,0.8-1.9c0.4-0.5,1-0.9,1.7-1.1c0.7-0.3,1.6-0.4,2.6-0.4c1,0,1.8,0.1,2.4,0.3c0.6,0.2,1.1,0.5,1.3,0.9
	c0.3,0.3,0.5,0.8,0.6,1.3c0.1,0.3,0.1,0.9,0.1,1.8v2.5c0,1.8,0,2.9,0.1,3.4c0.1,0.5,0.2,0.9,0.5,1.4h-2
	C171,92.7,170.8,92.2,170.8,91.7L170.8,91.7z M152.4,93.1V77.5h1.9v15.6H152.4L152.4,93.1z M147.6,87.5c-0.7,0.3-1.7,0.5-3.1,0.7
	c-0.8,0.1-1.4,0.2-1.7,0.4c-0.3,0.1-0.6,0.3-0.8,0.6c-0.2,0.3-0.3,0.6-0.3,0.9c0,0.5,0.2,0.9,0.6,1.3c0.4,0.3,1,0.5,1.7,0.5
	c0.7,0,1.4-0.2,2-0.5c0.6-0.3,1-0.8,1.3-1.3c0.2-0.4,0.3-1.1,0.3-1.9L147.6,87.5L147.6,87.5z M147.7,91.7c-0.7,0.6-1.4,1-2.1,1.3
	c-0.7,0.3-1.4,0.4-2.1,0.4c-1.2,0-2.2-0.3-2.9-0.9c-0.7-0.6-1-1.4-1-2.3c0-0.6,0.1-1.1,0.4-1.5c0.3-0.5,0.6-0.8,1-1.1
	c0.4-0.3,0.9-0.5,1.4-0.6c0.4-0.1,0.9-0.2,1.7-0.3c1.5-0.2,2.7-0.4,3.4-0.7c0-0.3,0-0.4,0-0.5c0-0.8-0.2-1.3-0.5-1.6
	c-0.5-0.4-1.2-0.6-2.2-0.6c-0.9,0-1.6,0.2-2,0.5c-0.4,0.3-0.7,0.9-1,1.7l-1.9-0.3c0.2-0.8,0.5-1.5,0.8-1.9c0.4-0.5,1-0.9,1.7-1.1
	c0.7-0.3,1.6-0.4,2.6-0.4c1,0,1.8,0.1,2.4,0.3c0.6,0.2,1.1,0.5,1.3,0.9c0.3,0.3,0.5,0.8,0.6,1.3c0.1,0.3,0.1,0.9,0.1,1.8v2.5
	c0,1.8,0,2.9,0.1,3.4c0.1,0.5,0.2,0.9,0.5,1.4h-2C147.9,92.7,147.8,92.2,147.7,91.7L147.7,91.7z M138.4,91.4l0.3,1.7
	c-0.5,0.1-1,0.2-1.4,0.2c-0.7,0-1.2-0.1-1.6-0.3c-0.4-0.2-0.7-0.5-0.8-0.9c-0.2-0.4-0.2-1.1-0.2-2.3v-6.5h-1.4v-1.5h1.4V79l1.9-1.2
	v4h1.9v1.5h-1.9v6.6c0,0.5,0,0.9,0.1,1.1c0.1,0.2,0.2,0.3,0.3,0.4c0.2,0.1,0.4,0.1,0.7,0.1C137.8,91.5,138.1,91.5,138.4,91.4
	L138.4,91.4z M122.2,93.1V81.8h1.7v1.6c0.8-1.2,2-1.8,3.6-1.8c0.7,0,1.3,0.1,1.9,0.4c0.6,0.2,1,0.6,1.3,1c0.3,0.4,0.5,0.9,0.6,1.4
	c0.1,0.4,0.1,1,0.1,1.9v7h-1.9v-6.9c0-0.8-0.1-1.4-0.2-1.8c-0.1-0.4-0.4-0.7-0.8-0.9c-0.4-0.2-0.8-0.3-1.3-0.3
	c-0.8,0-1.5,0.3-2.1,0.8c-0.6,0.5-0.9,1.5-0.9,2.9v6.2H122.2L122.2,93.1z M111.5,86.4h6.3c-0.1-1-0.3-1.7-0.7-2.1
	c-0.6-0.7-1.4-1.1-2.4-1.1c-0.9,0-1.6,0.3-2.2,0.9C111.9,84.6,111.5,85.4,111.5,86.4L111.5,86.4z M117.7,89.5l2,0.3
	c-0.3,1.2-0.9,2.1-1.7,2.7c-0.8,0.6-1.9,1-3.2,1c-1.7,0-3-0.5-3.9-1.5c-1-1-1.5-2.4-1.5-4.3c0-1.9,0.5-3.4,1.5-4.4
	c1-1.1,2.2-1.6,3.8-1.6c1.5,0,2.7,0.5,3.7,1.5c1,1,1.4,2.5,1.4,4.3c0,0.1,0,0.3,0,0.5h-8.4c0.1,1.2,0.4,2.2,1.1,2.9
	c0.6,0.7,1.4,1,2.4,1c0.7,0,1.3-0.2,1.8-0.6C117.1,90.9,117.5,90.3,117.7,89.5L117.7,89.5z M99.1,87.5c0,1.4,0.3,2.5,0.9,3.2
	c0.6,0.7,1.3,1.1,2.2,1.1c0.8,0,1.6-0.3,2.1-1c0.6-0.7,0.9-1.7,0.9-3.1c0-1.5-0.3-2.7-0.9-3.4c-0.6-0.7-1.3-1.1-2.2-1.1
	c-0.9,0-1.6,0.3-2.1,1C99.4,84.9,99.1,86,99.1,87.5L99.1,87.5z M105.2,93.1v-1.4c-0.7,1.1-1.8,1.7-3.2,1.7c-0.9,0-1.7-0.2-2.5-0.7
	c-0.8-0.5-1.3-1.2-1.8-2.1c-0.4-0.9-0.6-1.9-0.6-3.1c0-1.1,0.2-2.1,0.6-3.1c0.4-0.9,0.9-1.6,1.7-2.1c0.7-0.5,1.6-0.7,2.5-0.7
	c0.7,0,1.3,0.1,1.8,0.4c0.5,0.3,1,0.7,1.3,1.1v-5.6h1.9v15.6H105.2L105.2,93.1z"/>
<path class="st0" d="M96.6,10.5h1v5.1h2.8v-5.1h1v5.1h0.7v2.5h-0.8v-1.7h-4.6V10.5L96.6,10.5z M103.4,10.5h1V15l2.8-4.5h1.1v5.9h-1
	v-4.5l-2.8,4.5h-1.1V10.5L103.4,10.5z M113.4,8.2h1v2.8c0.2-0.2,0.4-0.4,0.7-0.5c0.2-0.1,0.5-0.2,0.8-0.2c0.7,0,1.3,0.3,1.7,0.9
	c0.4,0.6,0.6,1.3,0.6,2.2c0,0.9-0.2,1.7-0.7,2.2c-0.4,0.6-1,0.9-1.7,0.9c-0.2,0-0.4,0-0.7-0.1c-0.2-0.1-0.5-0.2-0.8-0.5v2.8h-1v-2.8
	c-0.2,0.2-0.4,0.4-0.7,0.5c-0.2,0.1-0.5,0.2-0.8,0.2c-0.6,0-1.2-0.3-1.6-0.8c-0.5-0.5-0.7-1.3-0.7-2.3c0-0.9,0.2-1.6,0.6-2.2
	c0.4-0.6,1-0.9,1.7-0.9c0.3,0,0.6,0.1,0.8,0.2c0.2,0.1,0.5,0.3,0.6,0.5V8.2L113.4,8.2z M114.4,13.5c0,0.9,0.1,1.5,0.4,1.8
	c0.2,0.3,0.6,0.5,0.9,0.5c0.4,0,0.8-0.2,1-0.6c0.3-0.4,0.4-1,0.4-1.8c0-0.8-0.1-1.3-0.4-1.7c-0.3-0.4-0.6-0.6-1-0.6
	c-0.4,0-0.8,0.2-1,0.6C114.5,12.2,114.4,12.7,114.4,13.5L114.4,13.5z M110.6,13.4c0,0.8,0.1,1.4,0.4,1.8c0.3,0.4,0.6,0.6,1,0.6
	c0.4,0,0.8-0.2,1-0.5c0.2-0.4,0.3-0.9,0.3-1.7c0-0.8-0.1-1.4-0.3-1.8c-0.2-0.4-0.6-0.6-1-0.6c-0.4,0-0.7,0.2-1,0.6
	C110.8,12.2,110.6,12.7,110.6,13.4L110.6,13.4z M119.5,18.7v-8.2h0.9v0.8c0.2-0.3,0.5-0.5,0.7-0.7c0.3-0.2,0.6-0.2,1-0.2
	c0.5,0,1,0.1,1.3,0.4c0.4,0.3,0.7,0.6,0.9,1.1c0.2,0.5,0.3,1,0.3,1.6c0,0.6-0.1,1.2-0.3,1.6c-0.2,0.5-0.5,0.9-1,1.1
	c-0.4,0.3-0.9,0.4-1.3,0.4c-0.3,0-0.6-0.1-0.9-0.2c-0.3-0.1-0.5-0.3-0.7-0.5v2.9H119.5L119.5,18.7z M120.5,13.5
	c0,0.8,0.2,1.3,0.5,1.7c0.3,0.4,0.7,0.5,1.1,0.5c0.4,0,0.8-0.2,1.1-0.6c0.3-0.4,0.5-1,0.5-1.8c0-0.8-0.2-1.3-0.5-1.7
	c-0.3-0.4-0.7-0.6-1.1-0.6c-0.4,0-0.8,0.2-1.1,0.6C120.6,12.2,120.5,12.7,120.5,13.5L120.5,13.5z M125.7,13.5c0-1.1,0.3-1.9,0.9-2.4
	c0.5-0.4,1.1-0.7,1.9-0.7c0.8,0,1.5,0.3,2,0.8c0.5,0.5,0.8,1.3,0.8,2.2c0,0.8-0.1,1.4-0.3,1.8c-0.2,0.4-0.6,0.8-1,1
	c-0.4,0.2-0.9,0.4-1.4,0.4c-0.8,0-1.5-0.3-2-0.8C126,15.2,125.7,14.5,125.7,13.5L125.7,13.5z M126.8,13.5c0,0.8,0.2,1.3,0.5,1.7
	c0.3,0.4,0.8,0.6,1.3,0.6c0.5,0,0.9-0.2,1.2-0.6c0.3-0.4,0.5-1,0.5-1.7c0-0.7-0.2-1.3-0.5-1.7c-0.3-0.4-0.8-0.6-1.2-0.6
	c-0.5,0-0.9,0.2-1.3,0.6C126.9,12.2,126.8,12.7,126.8,13.5L126.8,13.5z M132.6,10.5h2.3c0.6,0,1,0,1.3,0.1c0.3,0.1,0.5,0.3,0.7,0.5
	c0.2,0.3,0.3,0.6,0.3,0.9c0,0.3-0.1,0.5-0.2,0.7c-0.1,0.2-0.3,0.4-0.5,0.5c0.3,0.1,0.5,0.3,0.7,0.5c0.2,0.3,0.3,0.6,0.3,0.9
	c0,0.6-0.2,1-0.6,1.3c-0.4,0.3-0.9,0.4-1.6,0.4h-2.7V10.5L132.6,10.5z M133.7,13h1.1c0.4,0,0.7,0,0.9-0.1c0.2,0,0.3-0.1,0.4-0.3
	c0.1-0.1,0.2-0.3,0.2-0.5c0-0.3-0.1-0.5-0.3-0.7c-0.2-0.1-0.6-0.2-1.1-0.2h-1.1V13L133.7,13z M133.7,15.6h1.3c0.6,0,1-0.1,1.2-0.2
	c0.2-0.1,0.3-0.4,0.3-0.7c0-0.2-0.1-0.4-0.2-0.5c-0.1-0.2-0.3-0.3-0.5-0.3c-0.2,0-0.5-0.1-0.9-0.1h-1.2V15.6L133.7,15.6z
	 M138.4,13.5c0-1.1,0.3-1.9,0.9-2.4c0.5-0.4,1.1-0.7,1.9-0.7c0.8,0,1.5,0.3,2,0.8c0.5,0.5,0.8,1.3,0.8,2.2c0,0.8-0.1,1.4-0.3,1.8
	c-0.2,0.4-0.6,0.8-1,1c-0.4,0.2-0.9,0.4-1.4,0.4c-0.8,0-1.5-0.3-2-0.8C138.7,15.2,138.4,14.5,138.4,13.5L138.4,13.5z M139.4,13.5
	c0,0.8,0.2,1.3,0.5,1.7c0.3,0.4,0.8,0.6,1.3,0.6c0.5,0,0.9-0.2,1.3-0.6c0.3-0.4,0.5-1,0.5-1.7c0-0.7-0.2-1.3-0.5-1.7
	c-0.3-0.4-0.8-0.6-1.2-0.6c-0.5,0-0.9,0.2-1.3,0.6C139.6,12.2,139.4,12.7,139.4,13.5L139.4,13.5z M145.3,10.5h1V15l2.8-4.5h1.1v5.9
	h-1v-4.5l-2.8,4.5h-1.1V10.5L145.3,10.5z M148.8,8.3h0.7c-0.1,0.5-0.2,0.8-0.5,1.1c-0.3,0.3-0.7,0.4-1.1,0.4c-0.5,0-0.9-0.1-1.1-0.4
	c-0.3-0.3-0.5-0.6-0.5-1.1h0.7c0.1,0.3,0.2,0.5,0.3,0.6c0.2,0.1,0.4,0.2,0.6,0.2c0.3,0,0.5-0.1,0.7-0.2
	C148.7,8.8,148.8,8.6,148.8,8.3L148.8,8.3z M159.7,8.2h1v2.8c0.2-0.2,0.4-0.4,0.7-0.5c0.2-0.1,0.5-0.2,0.8-0.2
	c0.7,0,1.3,0.3,1.7,0.9c0.4,0.6,0.6,1.3,0.6,2.2c0,0.9-0.2,1.7-0.7,2.2c-0.4,0.6-1,0.9-1.7,0.9c-0.2,0-0.4,0-0.7-0.1
	c-0.2-0.1-0.5-0.2-0.8-0.5v2.8h-1v-2.8c-0.2,0.2-0.4,0.4-0.7,0.5c-0.2,0.1-0.5,0.2-0.8,0.2c-0.6,0-1.2-0.3-1.6-0.8
	c-0.5-0.5-0.7-1.3-0.7-2.3c0-0.9,0.2-1.6,0.6-2.2c0.4-0.6,1-0.9,1.7-0.9c0.3,0,0.6,0.1,0.8,0.2c0.2,0.1,0.5,0.3,0.6,0.5V8.2
	L159.7,8.2z M160.7,13.5c0,0.9,0.1,1.5,0.4,1.8c0.2,0.3,0.6,0.5,0.9,0.5c0.4,0,0.8-0.2,1-0.6c0.3-0.4,0.4-1,0.4-1.8
	c0-0.8-0.1-1.3-0.4-1.7c-0.3-0.4-0.6-0.6-1-0.6c-0.4,0-0.8,0.2-1,0.6C160.8,12.2,160.7,12.7,160.7,13.5L160.7,13.5z M156.9,13.4
	c0,0.8,0.1,1.4,0.4,1.8c0.3,0.4,0.6,0.6,1,0.6c0.4,0,0.8-0.2,1-0.5c0.2-0.4,0.3-0.9,0.3-1.7c0-0.8-0.1-1.4-0.3-1.8
	c-0.2-0.4-0.6-0.6-1-0.6c-0.4,0-0.7,0.2-1,0.6C157,12.2,156.9,12.7,156.9,13.4L156.9,13.4z M165.8,18.7v-8.2h0.9v0.8
	c0.2-0.3,0.5-0.5,0.7-0.7c0.3-0.2,0.6-0.2,1-0.2c0.5,0,1,0.1,1.3,0.4c0.4,0.3,0.7,0.6,0.9,1.1c0.2,0.5,0.3,1,0.3,1.6
	c0,0.6-0.1,1.2-0.3,1.6c-0.2,0.5-0.5,0.9-1,1.1c-0.4,0.3-0.9,0.4-1.3,0.4c-0.3,0-0.6-0.1-0.9-0.2c-0.3-0.1-0.5-0.3-0.7-0.5v2.9
	H165.8L165.8,18.7z M166.7,13.5c0,0.8,0.2,1.3,0.5,1.7c0.3,0.4,0.7,0.5,1.1,0.5c0.4,0,0.8-0.2,1.1-0.6c0.3-0.4,0.5-1,0.5-1.8
	c0-0.8-0.2-1.3-0.5-1.7c-0.3-0.4-0.7-0.6-1.1-0.6c-0.4,0-0.8,0.2-1.1,0.6C166.9,12.2,166.7,12.7,166.7,13.5L166.7,13.5z M176.4,14.5
	l1,0.1c-0.2,0.6-0.5,1.1-0.9,1.4c-0.4,0.3-1,0.5-1.7,0.5c-0.9,0-1.6-0.3-2.1-0.8c-0.5-0.5-0.8-1.3-0.8-2.2c0-1,0.3-1.8,0.8-2.3
	c0.5-0.6,1.2-0.8,2-0.8c0.8,0,1.4,0.3,1.9,0.8c0.5,0.5,0.8,1.3,0.8,2.3c0,0.1,0,0.1,0,0.3h-4.4c0,0.7,0.2,1.2,0.6,1.5
	c0.3,0.3,0.7,0.5,1.2,0.5c0.4,0,0.7-0.1,0.9-0.3C176.1,15.3,176.3,15,176.4,14.5L176.4,14.5z M173.1,12.9h3.3c0-0.5-0.2-0.9-0.4-1.1
	c-0.3-0.4-0.7-0.6-1.2-0.6c-0.5,0-0.8,0.2-1.2,0.5C173.3,12,173.2,12.4,173.1,12.9L173.1,12.9z M180,13.8V13c0.4,0,0.7,0,0.9,0
	c0.2,0,0.3-0.1,0.4-0.3c0.1-0.1,0.2-0.3,0.2-0.6c0-0.3-0.1-0.5-0.3-0.6c-0.2-0.2-0.4-0.2-0.7-0.2c-0.6,0-1,0.3-1.2,1l-1-0.2
	c0.3-1.1,1-1.7,2.2-1.7c0.6,0,1.1,0.2,1.5,0.5c0.4,0.3,0.5,0.8,0.5,1.2c0,0.5-0.2,0.9-0.7,1.2c0.3,0.2,0.5,0.4,0.7,0.6
	c0.1,0.2,0.2,0.5,0.2,0.9c0,0.5-0.2,1-0.6,1.3c-0.4,0.3-0.9,0.5-1.6,0.5c-1.4,0-2.1-0.6-2.4-1.8l1-0.2c0.1,0.4,0.3,0.7,0.5,0.9
	c0.3,0.2,0.6,0.3,0.9,0.3c0.3,0,0.6-0.1,0.8-0.3c0.2-0.2,0.3-0.4,0.3-0.7c0-0.2-0.1-0.4-0.2-0.6c-0.1-0.2-0.3-0.3-0.5-0.3
	c-0.2,0-0.5-0.1-0.9-0.1C180.2,13.7,180.1,13.8,180,13.8L180,13.8z M188,14.5l1,0.1c-0.2,0.6-0.5,1.1-0.9,1.4
	c-0.4,0.3-1,0.5-1.7,0.5c-0.9,0-1.6-0.3-2.1-0.8c-0.5-0.5-0.8-1.3-0.8-2.2c0-1,0.3-1.8,0.8-2.3c0.5-0.6,1.2-0.8,2-0.8
	c0.8,0,1.4,0.3,1.9,0.8c0.5,0.5,0.8,1.3,0.8,2.3c0,0.1,0,0.1,0,0.3h-4.4c0,0.7,0.2,1.2,0.6,1.5c0.3,0.3,0.7,0.5,1.2,0.5
	c0.4,0,0.7-0.1,0.9-0.3C187.7,15.3,187.9,15,188,14.5L188,14.5z M184.7,12.9h3.3c0-0.5-0.2-0.9-0.4-1.1c-0.3-0.4-0.7-0.6-1.2-0.6
	c-0.5,0-0.8,0.2-1.2,0.5C184.9,12,184.8,12.4,184.7,12.9L184.7,12.9z M190.5,18.7v-8.2h0.9v0.8c0.2-0.3,0.5-0.5,0.7-0.7
	c0.3-0.2,0.6-0.2,1-0.2c0.5,0,1,0.1,1.3,0.4c0.4,0.3,0.7,0.6,0.9,1.1c0.2,0.5,0.3,1,0.3,1.6c0,0.6-0.1,1.2-0.3,1.6
	c-0.2,0.5-0.5,0.9-1,1.1c-0.4,0.3-0.9,0.4-1.3,0.4c-0.3,0-0.6-0.1-0.9-0.2c-0.3-0.1-0.5-0.3-0.7-0.5v2.9H190.5L190.5,18.7z
	 M191.4,13.5c0,0.8,0.2,1.3,0.5,1.7c0.3,0.4,0.7,0.5,1.1,0.5c0.4,0,0.8-0.2,1.1-0.6c0.3-0.4,0.5-1,0.5-1.8c0-0.8-0.2-1.3-0.5-1.7
	c-0.3-0.4-0.7-0.6-1.1-0.6c-0.4,0-0.8,0.2-1.1,0.6C191.6,12.2,191.4,12.7,191.4,13.5L191.4,13.5z M197.1,10.5h1V13h2.8v-2.5h1v5.9
	h-1v-2.6h-2.8v2.6h-1V10.5L197.1,10.5z M209.2,10.5h1v5.9h-1V10.5L209.2,10.5z M203.6,10.5h1v2.3h1.3c0.8,0,1.5,0.2,1.9,0.5
	c0.4,0.3,0.7,0.8,0.7,1.3c0,0.5-0.2,0.9-0.6,1.3c-0.4,0.4-1,0.5-1.8,0.5h-2.5V10.5L203.6,10.5z M204.6,15.6h1.1
	c0.6,0,1.1-0.1,1.4-0.2c0.3-0.2,0.4-0.4,0.4-0.7c0-0.3-0.1-0.5-0.3-0.7c-0.2-0.2-0.6-0.3-1.3-0.3h-1.2V15.6L204.6,15.6z M212,10.5h1
	V15l2.8-4.5h1.1v5.9h-1v-4.5l-2.8,4.5H212V10.5L212,10.5z M215.5,8.3h0.7c-0.1,0.5-0.2,0.8-0.5,1.1c-0.3,0.3-0.7,0.4-1.1,0.4
	c-0.5,0-0.9-0.1-1.1-0.4c-0.3-0.3-0.5-0.6-0.5-1.1h0.7c0.1,0.3,0.2,0.5,0.3,0.6c0.2,0.1,0.4,0.2,0.6,0.2c0.3,0,0.5-0.1,0.7-0.2
	C215.3,8.8,215.4,8.6,215.5,8.3L215.5,8.3z M222.9,10.5h1v5.1h2.8v-5.1h1v5.1h0.7v2.5h-0.8v-1.7h-4.6V10.5L222.9,10.5z M233.5,14.5
	l1,0.1c-0.2,0.6-0.5,1.1-0.9,1.4c-0.4,0.3-1,0.5-1.7,0.5c-0.9,0-1.6-0.3-2.1-0.8c-0.5-0.5-0.8-1.3-0.8-2.2c0-1,0.3-1.8,0.8-2.3
	c0.5-0.6,1.2-0.8,2-0.8c0.8,0,1.4,0.3,1.9,0.8c0.5,0.5,0.8,1.3,0.8,2.3c0,0.1,0,0.1,0,0.3h-4.4c0,0.7,0.2,1.2,0.6,1.5
	c0.3,0.3,0.7,0.5,1.2,0.5c0.4,0,0.7-0.1,0.9-0.3C233.2,15.3,233.4,15,233.5,14.5L233.5,14.5z M230.2,12.9h3.3c0-0.5-0.2-0.9-0.4-1.1
	c-0.3-0.4-0.7-0.6-1.2-0.6c-0.5,0-0.8,0.2-1.2,0.5C230.4,12,230.3,12.4,230.2,12.9L230.2,12.9z M236,10.5h1V13h2.8v-2.5h1v5.9h-1
	v-2.6H237v2.6h-1V10.5L236,10.5z M242,10.5h4.8v0.8h-1.9v5.1h-1v-5.1H242V10.5L242,10.5z M248,18.7v-8.2h0.9v0.8
	c0.2-0.3,0.5-0.5,0.7-0.7c0.3-0.2,0.6-0.2,1-0.2c0.5,0,1,0.1,1.3,0.4c0.4,0.3,0.7,0.6,0.9,1.1c0.2,0.5,0.3,1,0.3,1.6
	c0,0.6-0.1,1.2-0.3,1.6c-0.2,0.5-0.5,0.9-1,1.1c-0.4,0.3-0.9,0.4-1.3,0.4c-0.3,0-0.6-0.1-0.9-0.2c-0.3-0.1-0.5-0.3-0.7-0.5v2.9H248
	L248,18.7z M248.9,13.5c0,0.8,0.2,1.3,0.5,1.7c0.3,0.4,0.7,0.5,1.1,0.5c0.4,0,0.8-0.2,1.1-0.6c0.3-0.4,0.5-1,0.5-1.8
	c0-0.8-0.2-1.3-0.5-1.7c-0.3-0.4-0.7-0.6-1.1-0.6c-0.4,0-0.8,0.2-1.1,0.6C249,12.2,248.9,12.7,248.9,13.5L248.9,13.5z"/>
<path class="st2" d="M86.2,28c0,13.8,0,27.5,0,41.3c0,2-0.7,4.6-3.7,6.4L46.8,96.3c-3,1.7-5.7,1-7.3,0l-14.6-8.4L3.7,75.6
	C0.7,73.9,0,71.2,0,69.3C0,55.5,0,41.8,0,28c0.1-3.4,2-5.4,3.7-6.4L39.4,1c1.7-1,4.3-1.6,7.3,0l11.4,6.6v17.2l-12.6-7.3
	c-2-1.1-3.7-0.7-4.8,0L17.3,31c-1.1,0.6-2.3,1.9-2.4,4.2c0,9,0,18,0,27c0,1.3,0.5,3,2.4,4.2l13.8,8l9.6,5.5c1.1,0.7,2.8,1.1,4.8,0
	l23.4-13.5c1.9-1.2,2.4-2.9,2.4-4.2l0-47l11.3,6.5C84.2,22.6,86.1,24.6,86.2,28L86.2,28z"/>
<path class="st3" d="M58.1,7.6l13.1,7.6l0,47c0,1.3-0.5,3-2.4,4.2L45.5,79.8c-2,1.1-3.7,0.7-4.8,0l-9.6-5.5l-13.8-8
	c-1.9-1.2-2.4-2.9-2.4-4.2c0-9,0-18,0-27c0-2.2,1.3-3.5,2.4-4.2l23.4-13.5c1.1-0.7,2.8-1.1,4.8,0l12.6,7.3V7.6L58.1,7.6z"/>
<path class="st4" d="M58.1,41.4c0,4.8,0,9.6,0,14.4c0,0.7-0.3,1.6-1.3,2.2l-12.5,7.2c-1,0.6-2,0.4-2.6,0l-5.1-2.9l-7.4-4.3
	c-1-0.6-1.3-1.5-1.3-2.2c0-4.8,0-9.6,0-14.4c0-1.2,0.7-1.9,1.3-2.2L41.8,32c0.6-0.4,1.5-0.6,2.6,0l12.5,7.2
	C57.5,39.5,58.1,40.2,58.1,41.4L58.1,41.4z"/>
</svg>
