<?xml version="1.0" encoding="utf-8"?>
<!-- Generator: Adobe Illustrator 22.0.1, SVG Export Plug-In . SVG Version: 6.00 Build 0)  -->
<svg version="1.1" id="Layer_1" xmlns="http://www.w3.org/2000/svg" xmlns:xlink="http://www.w3.org/1999/xlink" x="0px" y="0px"
	 viewBox="0 0 512 512" style="enable-background:new 0 0 512 512;" xml:space="preserve">
<style type="text/css">
	.st0{fill:#11557a;}
	.st1{fill-rule:evenodd;clip-rule:evenodd;fill:#FFFFFF;}
</style>
<g>
	<g>
		<path class="st0" d="M256,0C150.1,0,64,86.1,64,192c0,141.6,177.1,310,184.7,317.1c2.1,1.9,4.7,2.9,7.3,2.9s5.3-1,7.3-2.9
			C270.9,502,448,333.6,448,192C448,86.1,361.9,0,256,0z"/>
	</g>
</g>
<path class="st1" d="M349.2,146.6c0,29.8,0,59.5,0,89.3c0.1,4.2-1.6,9.9-7.9,13.7l-77.3,44.6c-6.5,3.6-12.2,2.2-15.9,0L216.5,276
	l-45.7-26.4c-6.3-3.8-8-9.5-7.9-13.7c0-29.8,0-59.5,0-89.3c0.2-7.4,4.2-11.7,7.9-13.7l77.3-44.6c3.6-2.2,9.4-3.6,15.9,0l77.3,44.6
	C345,134.9,349,139.2,349.2,146.6L349.2,146.6z"/>
</svg>
